<?xml version="1.0" standalone="no"?>
<!DOCTYPE svg PUBLIC "-//W3C//DTD SVG 20010904//EN"
 "http://www.w3.org/TR/2001/REC-SVG-20010904/DTD/svg10.dtd">
<svg version="1.0" xmlns="http://www.w3.org/2000/svg"
 width="612.000000pt" height="612.000000pt" viewBox="0 0 612.000000 612.000000"
 preserveAspectRatio="xMidYMid meet">

<g transform="translate(0.000000,612.000000) scale(0.100000,-0.100000)"
fill="#000000" stroke="none">
<path d="M3080 6080 c-19 -4 -64 -15 -100 -23 -36 -9 -82 -19 -103 -22 -23 -4
-53 -19 -75 -39 -42 -37 -132 -62 -187 -52 -21 4 -48 1 -71 -9 -50 -20 -66
-19 -124 10 -27 14 -59 25 -70 25 -29 0 -82 -29 -99 -54 -30 -43 -83 -86 -107
-86 -38 0 -83 -22 -158 -78 -38 -29 -86 -57 -107 -62 -77 -21 -274 -169 -375
-281 -27 -30 -70 -70 -96 -88 -61 -43 -75 -66 -137 -238 -54 -150 -61 -203
-40 -288 8 -32 8 -57 -1 -97 -7 -29 -16 -89 -20 -133 -5 -44 -14 -111 -21
-150 -17 -99 -14 -811 4 -965 10 -80 12 -146 6 -215 -9 -107 -12 -121 -54
-230 -35 -89 -55 -199 -54 -295 1 -61 3 -68 9 -37 11 58 18 54 19 -10 0 -53
10 -127 41 -313 6 -36 13 -73 16 -84 4 -12 2 -16 -5 -12 -13 9 -14 -2 -2 -40
5 -16 14 -49 21 -74 27 -100 64 -207 82 -238 22 -40 23 -48 3 -32 -20 17 -19
7 4 -39 11 -21 34 -85 51 -142 45 -153 221 -656 257 -739 11 -25 23 -54 27
-65 6 -16 9 -17 17 -5 9 13 10 13 6 0 -2 -8 0 -23 5 -32 5 -11 5 -25 -2 -37
-12 -23 7 -42 20 -21 13 20 30 1 30 -33 0 -18 -14 -86 -30 -152 -37 -150 -40
-237 -8 -259 12 -9 25 -16 29 -16 3 0 6 38 7 84 1 46 6 113 12 147 5 35 10 89
10 119 l0 55 29 -50 c15 -27 67 -108 114 -180 48 -72 87 -136 87 -142 0 -7 4
-13 9 -13 5 0 11 -8 15 -17 16 -47 77 -140 102 -156 65 -39 314 -105 524 -137
349 -54 699 -49 1030 15 229 45 567 148 563 172 -2 7 4 10 12 7 8 -4 23 -3 32
0 14 6 10 13 -25 45 -39 36 -41 40 -31 69 6 18 26 41 44 52 100 62 131 165 35
115 -33 -17 -43 -6 -29 32 5 13 6 29 3 36 -3 8 10 34 29 58 69 91 156 227 197
309 23 47 53 99 66 117 27 36 83 170 179 428 37 99 72 186 78 193 5 7 34 24
64 38 89 43 120 98 216 389 75 229 83 261 97 388 10 91 1 215 -18 255 -5 9
-14 44 -21 77 -21 99 -67 161 -128 177 -34 9 -28 -6 9 -23 44 -19 72 -64 105
-168 25 -77 28 -99 27 -216 -1 -71 -9 -173 -18 -225 -20 -113 -134 -462 -169
-517 -55 -85 -130 -121 -143 -67 -12 48 6 341 23 376 9 17 17 50 18 73 2 23 7
50 13 61 16 29 37 116 33 139 -2 11 -8 29 -14 40 -14 24 -14 27 -16 67 -1 30
-2 31 -21 13 -15 -14 -19 -29 -18 -74 1 -31 -1 -61 -4 -66 -3 -6 -5 -39 -4
-74 1 -43 -2 -65 -11 -68 -8 -3 -13 -22 -13 -44 0 -40 -14 -73 -40 -97 -8 -7
-10 -11 -4 -8 7 3 15 -1 18 -10 8 -22 8 -26 -4 -19 -5 3 -10 2 -10 -4 0 -5 6
-12 13 -14 8 -4 9 -8 2 -14 -6 -4 -12 -24 -14 -43 -1 -19 -8 -47 -16 -62 -11
-22 -10 -29 3 -42 11 -10 12 -16 4 -16 -7 0 -12 -8 -12 -19 0 -10 -6 -24 -13
-30 -13 -10 -41 -87 -35 -94 2 -2 -2 -10 -8 -18 -6 -8 -15 -32 -19 -54 -4 -22
-10 -44 -15 -50 -4 -5 -11 -28 -14 -50 -15 -96 -18 -111 -26 -130 -37 -92 -65
-171 -62 -178 1 -5 -4 -14 -11 -21 -8 -6 -23 -33 -33 -61 -10 -27 -28 -63 -41
-80 -12 -16 -31 -41 -40 -54 -10 -14 -37 -44 -60 -68 -22 -24 -44 -50 -47 -58
-3 -8 -15 -15 -26 -15 -12 0 -18 -4 -15 -10 3 -6 -1 -7 -9 -4 -9 3 -16 1 -16
-4 0 -16 -46 -63 -53 -55 -4 3 -7 -1 -7 -11 0 -9 -10 -21 -22 -26 -13 -5 -18
-9 -11 -9 7 -1 10 -8 6 -16 -3 -9 -8 -13 -11 -11 -3 3 -15 -7 -26 -22 -12 -15
-28 -27 -36 -27 -8 0 -16 -6 -16 -12 -1 -7 -2 -20 -3 -29 0 -8 -5 -13 -9 -10
-8 5 -42 -28 -42 -40 0 -18 -103 -118 -172 -167 -79 -57 -220 -143 -246 -151
-11 -4 -26 -13 -33 -22 -10 -13 -14 -13 -29 1 -17 15 -19 14 -31 -14 -10 -23
-16 -27 -27 -19 -9 8 -10 13 -1 18 8 6 8 9 0 14 -6 4 -11 2 -11 -4 0 -7 -8 -9
-20 -5 -17 5 -20 2 -20 -27 0 -33 -1 -33 -18 -12 -9 12 -27 25 -39 28 -21 7
-21 5 -12 -26 12 -44 12 -44 -10 -24 -25 23 -55 17 -59 -12 -2 -12 -8 -22 -14
-22 -5 0 -7 7 -4 16 11 27 -4 64 -26 64 -18 0 -20 -4 -14 -39 6 -42 -8 -66
-18 -29 -5 22 -6 21 -35 -11 -28 -31 -30 -32 -33 -10 -2 16 -10 23 -28 24 -14
1 -34 6 -45 10 -18 8 -18 7 -6 -8 8 -10 10 -24 6 -34 -5 -10 -7 -29 -7 -43 1
-23 -2 -18 -14 19 -4 11 -8 11 -23 -3 -16 -15 -19 -15 -31 -1 -20 24 -29 18
-36 -25 -6 -35 -8 -38 -19 -24 -6 10 -17 14 -24 10 -7 -5 -13 3 -17 23 -7 31
-19 41 -26 19 -6 -16 -27 -1 -38 26 l-9 21 -7 -23 c-7 -23 -7 -23 -21 -2 -17
24 -22 24 -47 5 -16 -12 -17 -18 -8 -27 7 -7 12 -19 12 -28 -1 -11 -5 -10 -19
7 -10 12 -22 19 -25 15 -4 -4 -16 4 -27 18 l-19 25 -6 -22 c-8 -30 -14 -29
-44 7 -30 36 -40 38 -40 8 l0 -22 -16 22 c-9 13 -21 21 -27 19 -7 -3 -24 7
-39 20 l-26 25 -14 -21 c-18 -29 -28 -26 -28 8 0 23 -4 29 -19 28 -15 -1 -17
-4 -9 -14 17 -20 -19 -16 -40 5 -9 9 -30 23 -45 29 -15 7 -27 17 -27 22 0 9
-55 41 -72 41 -5 0 -34 28 -66 61 -31 34 -84 90 -117 124 -33 35 -78 85 -100
111 -22 26 -48 56 -58 67 -10 10 -20 29 -21 42 -1 13 -7 30 -13 37 -6 7 -16
31 -22 54 -6 22 -22 51 -37 65 -14 13 -32 38 -40 54 -8 17 -25 48 -39 70 -13
22 -27 47 -30 55 -4 8 -10 22 -15 30 -5 8 -21 38 -36 65 -15 28 -35 61 -45 74
-11 13 -19 36 -19 51 0 33 -24 59 -34 35 -3 -8 -3 -21 0 -29 3 -7 -1 -16 -9
-19 -11 -4 -13 0 -10 13 3 11 -2 27 -12 36 -9 9 -14 23 -11 30 3 8 1 14 -4 14
-6 0 -10 5 -10 11 0 18 22 -2 36 -35 8 -18 13 -24 14 -13 0 9 5 17 11 17 5 0
7 5 3 11 -4 8 -9 7 -16 -2 -7 -10 -8 -2 -4 24 4 29 0 43 -15 58 -21 21 -26 34
-8 24 6 -4 5 2 -2 13 -7 12 -16 19 -18 16 -6 -5 -6 -9 -10 -54 l-2 -25 -13 25
c-14 26 -29 141 -16 119 6 -8 11 -5 19 10 8 15 9 21 1 21 -7 0 -9 8 -5 19 3
11 1 22 -5 26 -5 3 -10 0 -10 -7 0 -10 -2 -10 -9 1 -7 11 -10 11 -17 0 -4 -7
-3 -14 4 -17 6 -2 8 -10 5 -19 -4 -11 -12 -2 -24 29 -14 37 -15 51 -6 87 11
42 7 52 -27 64 -5 1 -8 15 -8 30 0 28 -13 37 -21 15 -2 -7 -4 3 -5 22 -5 125
-29 296 -84 590 -19 105 -20 113 -19 397 0 232 2 277 17 310 9 21 16 48 15 60
0 12 4 34 9 48 6 16 6 25 0 25 -13 0 -13 223 0 310 5 36 14 66 20 68 5 2 8 8
5 12 -6 10 14 99 25 115 4 6 11 26 15 45 4 19 20 76 35 126 16 50 40 154 55
230 60 313 77 364 175 509 55 81 139 163 228 224 68 46 183 101 212 101 10 0
34 7 54 15 57 24 187 43 341 50 77 3 185 11 240 16 55 6 117 12 139 15 21 2
47 -1 58 -7 28 -15 119 -14 129 2 5 9 11 10 21 2 7 -6 98 -13 218 -16 225 -7
349 -22 545 -69 163 -38 242 -67 375 -133 189 -95 259 -162 334 -325 32 -69
45 -127 72 -310 8 -57 53 -240 65 -261 4 -9 10 -27 13 -40 2 -13 20 -61 40
-106 36 -82 79 -243 111 -423 10 -52 26 -135 37 -185 10 -49 24 -124 29 -165
6 -41 22 -104 35 -140 13 -36 24 -81 24 -100 0 -27 16 -58 70 -135 79 -113 86
-140 76 -269 -9 -104 -25 -167 -64 -241 -39 -73 -42 -101 -11 -83 42 26 87
157 108 318 5 41 15 104 21 140 17 94 5 195 -31 271 -17 35 -36 67 -42 71 -7
4 -33 8 -59 8 -46 0 -48 1 -48 29 0 21 -6 32 -20 36 -13 4 -20 15 -20 32 0 41
21 156 33 182 8 15 11 98 10 245 -6 592 -11 783 -21 821 -7 22 -12 66 -12 97
0 35 -9 83 -25 126 -31 85 -31 105 -3 145 33 46 36 126 8 174 -13 21 -35 76
-51 122 -36 105 -65 153 -128 215 -28 27 -51 53 -51 57 0 16 -104 135 -177
204 -52 49 -75 77 -75 95 -2 41 -26 130 -45 163 -27 44 -63 67 -124 77 -30 5
-92 23 -139 40 -47 18 -110 41 -140 52 -30 11 -66 28 -81 39 -54 38 -166 79
-218 79 -27 0 -53 -4 -56 -10 -11 -18 -47 -11 -52 10 -3 11 -16 23 -30 26 -27
7 -44 -3 -24 -15 10 -6 9 -10 -4 -15 -23 -8 -22 -9 -28 14 -4 15 -14 20 -41
20 -35 0 -49 -14 -23 -23 6 -2 9 -7 6 -11 -7 -8 -108 21 -123 35 -6 5 -20 9
-33 9 -15 0 -28 10 -38 29 -14 27 -52 63 -65 60 -3 -1 -21 -5 -40 -9z m356
-438 c-10 -10 -29 15 -21 28 6 9 10 8 17 -4 6 -10 7 -20 4 -24z m-1002 7 c-4
-7 -8 -21 -9 -33 -4 -35 -5 -36 -16 -36 -6 0 -8 7 -5 16 9 23 -3 37 -20 23
-17 -14 -18 -5 -2 21 7 11 23 20 36 20 15 0 21 -4 16 -11z m1016 -34 c0 -8 -4
-15 -10 -15 -5 0 -10 7 -10 15 0 8 5 15 10 15 6 0 10 -7 10 -15z m-2242 -3456
c-3 -8 -7 -3 -11 10 -4 17 -3 21 5 13 5 -5 8 -16 6 -23z m282 -733 c0 -3 -4
-8 -10 -11 -5 -3 -10 -1 -10 4 0 6 5 11 10 11 6 0 10 -2 10 -4z m332 -719 c20
4 21 3 6 -7 -9 -6 -15 -17 -12 -25 9 -21 -10 -18 -31 5 -11 12 -15 26 -11 37
7 17 8 17 17 1 6 -10 17 -14 31 -11z m625 -539 c-3 -8 -6 -5 -6 6 -1 11 2 17
5 13 3 -3 4 -12 1 -19z m643 2 c0 -11 -4 -20 -10 -20 -5 0 -10 9 -10 20 0 11
5 20 10 20 6 0 10 -9 10 -20z"/>
<path d="M3720 3706 c-115 -19 -255 -51 -310 -71 -25 -9 -64 -24 -87 -32 -52
-19 -90 -55 -98 -94 -8 -36 3 -129 16 -129 20 0 7 -40 -25 -79 -48 -58 -88
-144 -90 -194 -2 -38 1 -43 24 -47 16 -3 31 -17 41 -38 10 -18 20 -33 24 -33
10 0 48 45 67 80 19 34 66 47 53 14 -3 -10 -9 -31 -12 -47 -6 -27 -4 -29 18
-22 33 10 119 12 147 2 17 -6 22 -4 22 9 0 35 39 93 71 104 46 16 46 16 53
-36 8 -61 36 -107 78 -130 36 -19 161 -24 256 -10 42 6 52 5 52 -7 0 -8 -6
-17 -12 -20 -7 -3 -2 -3 11 0 13 3 29 7 35 9 44 9 76 22 111 43 22 14 61 29
88 33 60 10 103 40 110 79 7 35 -8 84 -23 75 -6 -3 -14 2 -18 12 -4 12 -18 19
-40 19 -18 1 -40 5 -50 10 -9 4 -51 15 -92 24 -41 9 -111 25 -155 36 -109 26
-378 26 -477 0 -80 -21 -116 -10 -133 39 -5 17 -15 34 -22 38 -16 10 0 47 20
47 7 0 25 7 41 15 75 40 268 75 517 96 158 13 187 11 294 -21 154 -46 185 -54
191 -47 16 16 -82 128 -164 189 -103 77 -149 91 -307 94 -84 2 -174 -2 -225
-10z m133 -453 c-7 -2 -21 -2 -30 0 -10 3 -4 5 12 5 17 0 24 -2 18 -5z m213
-61 c-7 -7 -46 9 -46 18 0 5 11 4 25 -2 14 -6 23 -13 21 -16z m77 -27 c55 -27
132 -84 123 -92 -3 -3 -20 7 -37 21 -18 15 -58 41 -90 57 -33 16 -59 31 -59
34 0 8 8 6 63 -20z m-333 -43 c0 -13 -12 -22 -22 -16 -10 6 -1 24 13 24 5 0 9
-4 9 -8z m260 -78 c0 -14 -108 -79 -116 -71 -3 3 1 16 9 29 8 12 20 45 27 71
l13 48 33 -32 c19 -18 34 -38 34 -45z"/>
<path d="M1775 3692 c-82 -28 -145 -71 -226 -151 -82 -82 -133 -151 -127 -174
6 -26 103 8 187 64 l76 51 192 -6 c105 -3 224 -11 265 -17 90 -14 355 -100
348 -114 -3 -5 -15 -9 -28 -7 -20 2 -22 0 -16 -23 5 -20 2 -25 -12 -25 -9 0
-14 -3 -10 -7 12 -12 -48 -30 -74 -23 -71 21 -172 32 -293 31 -143 0 -141 0
-425 -92 -19 -6 -36 -9 -38 -6 -3 3 -17 -6 -31 -19 -19 -17 -23 -27 -15 -36 5
-7 13 -28 17 -45 3 -18 12 -33 18 -32 7 0 39 22 72 50 68 55 145 98 225 124
82 27 295 25 370 -3 67 -25 50 -28 -34 -6 -78 21 -260 12 -338 -16 -138 -49
-258 -133 -258 -180 0 -11 1 -20 3 -20 1 0 31 -11 67 -24 64 -23 90 -25 122
-12 9 4 30 0 48 -9 18 -9 34 -14 37 -12 2 3 -5 11 -17 17 -34 18 -70 52 -70
66 0 12 68 74 81 74 3 0 11 -17 17 -37 32 -106 84 -139 196 -128 115 11 151
41 171 143 l11 55 42 -37 c52 -47 55 -79 11 -101 -51 -27 -27 -27 51 0 40 14
85 25 98 25 22 0 24 3 19 29 l-6 30 47 -16 c26 -9 52 -20 58 -25 14 -11 44 32
49 70 4 35 -34 116 -85 182 -24 31 -36 100 -17 100 5 0 6 14 3 33 -4 17 -6 44
-6 59 0 38 -63 95 -115 104 -22 3 -51 12 -65 19 -14 7 -45 16 -70 20 -25 3
-88 17 -140 30 -86 20 -160 31 -290 41 -25 2 -67 -5 -95 -14z m335 -572 c0 -5
-7 -10 -15 -10 -8 0 -15 5 -15 10 0 6 7 10 15 10 8 0 15 -4 15 -10z"/>
<path d="M3516 2982 c10 -9 132 -48 183 -58 22 -4 31 -3 27 4 -3 6 -21 13 -39
17 -17 4 -56 15 -85 26 -54 19 -104 26 -86 11z"/>
<path d="M2275 2970 c-3 -6 1 -7 9 -4 18 7 21 14 7 14 -6 0 -13 -4 -16 -10z"/>
<path d="M3770 2896 c16 -12 30 -24 30 -28 0 -12 -38 -10 -45 2 -3 6 -26 10
-51 10 -30 0 -43 -4 -39 -11 4 -6 22 -9 40 -8 18 2 40 -3 49 -10 8 -7 42 -15
76 -18 l60 -6 0 28 c0 18 6 28 20 32 11 3 20 10 20 15 0 6 -6 8 -14 5 -8 -3
-16 -3 -19 0 -3 3 -40 6 -81 7 l-76 2 30 -20z m90 -26 c0 -5 -7 -10 -15 -10
-8 0 -15 5 -15 10 0 6 7 10 15 10 8 0 15 -4 15 -10z"/>
<path d="M2020 2895 c-7 -9 -10 -19 -6 -22 4 -4 11 -2 15 6 7 10 12 10 29 0
16 -10 23 -10 35 0 10 8 17 9 22 1 10 -17 25 -11 25 10 0 18 -7 20 -54 20 -36
0 -58 -5 -66 -15z"/>
<path d="M2178 2888 c9 -9 15 -9 24 0 9 9 7 12 -12 12 -19 0 -21 -3 -12 -12z"/>
<path d="M1928 2868 c9 -9 15 -9 24 0 9 9 7 12 -12 12 -19 0 -21 -3 -12 -12z"/>
<path d="M3915 2860 c-3 -5 1 -10 9 -10 8 0 18 5 21 10 3 6 -1 10 -9 10 -8 0
-18 -4 -21 -10z"/>
<path d="M2098 2843 c7 -3 16 -2 19 1 4 3 -2 6 -13 5 -11 0 -14 -3 -6 -6z"/>
<path d="M2622 2491 c-6 -3 -21 -28 -32 -53 -17 -40 -19 -51 -8 -68 7 -11 16
-20 19 -20 16 0 53 137 40 145 -4 2 -12 0 -19 -4z"/>
<path d="M3186 2374 c-3 -12 -2 -32 3 -45 8 -21 10 -22 16 -7 4 10 3 30 -2 45
-9 26 -10 27 -17 7z"/>
<path d="M2461 2305 c-58 -66 -83 -232 -46 -305 27 -55 85 -109 129 -121 21
-6 63 -22 93 -35 30 -14 62 -23 71 -20 23 8 66 -33 164 -153 20 -23 35 -26 58
-10 11 8 12 12 2 16 -6 2 -10 9 -6 14 3 5 14 4 26 -2 18 -10 20 -9 14 6 -4 12
0 18 14 22 11 3 20 9 20 14 0 17 24 9 89 -30 36 -21 84 -44 106 -51 101 -31
179 -83 284 -189 113 -115 136 -145 126 -161 -12 -20 -53 -10 -98 25 -25 19
-56 40 -69 45 -13 5 -32 17 -44 25 -18 13 -22 13 -40 -3 -34 -31 -102 -52
-131 -41 -15 5 -33 7 -41 4 -7 -3 -25 4 -39 15 -14 11 -32 20 -39 20 -7 0 -17
7 -22 16 -5 9 -15 14 -23 12 -8 -3 -22 -1 -31 4 -12 6 -28 3 -48 -7 -28 -15
-30 -14 -30 4 0 11 5 23 10 26 12 7 4 25 -11 25 -5 0 -9 -6 -9 -12 0 -14 -60
-52 -68 -44 -3 3 0 12 6 19 8 9 8 17 1 24 -13 13 -67 -11 -76 -33 -3 -8 -12
-14 -19 -14 -8 0 -17 -7 -20 -15 -4 -8 -19 -15 -35 -15 -15 0 -39 -5 -53 -11
-14 -7 -33 -8 -43 -4 -10 4 -45 9 -78 11 -35 3 -66 11 -77 20 -9 9 -23 14 -31
11 -8 -3 -20 -1 -27 3 -8 5 -22 4 -31 -1 -12 -6 -19 -5 -21 3 -3 8 -23 -4 -53
-30 -26 -23 -64 -46 -84 -52 -46 -13 -111 -50 -124 -71 -17 -28 -1 -49 37 -49
68 0 155 -35 196 -80 26 -28 44 -40 55 -36 9 3 14 2 11 -3 -3 -5 5 -16 18 -25
14 -8 35 -26 48 -39 13 -13 47 -31 77 -41 68 -22 221 -37 239 -23 10 8 16 7
21 -1 7 -12 45 -12 57 0 12 13 -18 50 -37 45 -10 -3 -19 -1 -19 4 0 5 -20 7
-45 5 -24 -3 -47 0 -50 5 -4 5 -18 8 -33 7 -15 0 -44 9 -66 21 -35 20 -40 21
-55 6 -24 -21 -34 -19 -21 4 14 26 13 38 -2 23 -18 -18 -27 -15 -40 16 -11 26
-12 26 -15 5 -6 -31 -22 -29 -60 7 -19 18 -38 28 -47 24 -10 -4 -16 -1 -16 7
0 8 -13 20 -30 27 -16 8 -30 17 -30 21 0 8 84 36 170 57 97 23 377 12 433 -17
10 -5 22 -7 28 -4 15 10 95 16 169 14 36 -2 79 -2 95 -1 17 0 37 -2 45 -5 8
-2 35 -6 60 -7 25 -2 73 -17 110 -35 58 -27 57 -31 -2 -15 -10 3 -18 1 -18 -5
0 -6 7 -11 15 -11 44 0 -13 -58 -69 -69 -17 -4 -36 -16 -41 -28 -19 -37 -37
-53 -61 -53 -13 0 -24 -4 -24 -9 0 -21 76 2 102 30 29 32 43 37 34 14 -4 -11
2 -15 23 -15 30 0 112 50 167 102 23 21 44 30 83 35 57 6 76 28 61 68 -22 60
-31 99 -32 135 -1 64 -47 170 -74 170 -6 0 -24 16 -38 35 -15 19 -48 47 -74
61 -132 75 -181 107 -219 144 -47 46 -52 58 -25 67 169 58 220 124 209 272 -6
91 -28 156 -64 193 -46 48 -59 35 -25 -25 63 -112 78 -229 35 -273 -20 -19
-62 -13 -103 16 -56 40 -143 16 -228 -64 -53 -49 -91 -69 -112 -56 -7 5 -36 6
-64 4 -43 -3 -54 -1 -77 22 -14 14 -33 26 -40 28 -8 1 -34 14 -59 28 -25 15
-58 32 -75 38 -34 13 -147 10 -156 -4 -4 -5 -14 -6 -23 -3 -12 5 -16 21 -16
71 0 71 25 151 65 210 31 46 16 47 -24 1z m739 -400 c10 -12 8 -16 -11 -24
-29 -11 -33 -8 -24 18 8 25 18 27 35 6z m-220 -9 c0 -2 -8 -10 -17 -17 -16
-13 -17 -12 -4 4 13 16 21 21 21 13z m610 -426 c0 -5 -2 -10 -4 -10 -3 0 -8 5
-11 10 -3 6 -1 10 4 10 6 0 11 -4 11 -10z"/>
<path d="M1311 1924 c0 -11 3 -14 6 -6 3 7 2 16 -1 19 -3 4 -6 -2 -5 -13z"/>
<path d="M2641 1788 c-8 -13 -13 -42 -12 -65 1 -26 -2 -43 -8 -43 -6 0 -11 8
-11 18 0 30 -17 47 -32 34 -10 -8 -18 -8 -24 -2 -7 7 -16 4 -28 -9 -10 -11
-24 -17 -31 -15 -7 3 -27 -12 -45 -33 -31 -37 -32 -37 -27 -10 6 39 -14 35
-65 -14 -24 -23 -47 -42 -53 -43 -25 -5 -55 -28 -55 -43 0 -13 3 -13 15 -3 24
20 17 -5 -7 -26 -12 -10 -18 -13 -14 -6 5 7 1 12 -9 12 -12 0 -15 -5 -11 -17
4 -10 -2 -25 -15 -40 -27 -28 -21 -29 26 -3 39 22 46 13 14 -16 -24 -22 -53
-74 -41 -74 15 0 121 100 127 120 4 11 10 18 15 15 5 -3 39 15 75 40 37 25 72
45 80 45 15 0 86 32 130 58 17 10 40 38 52 62 22 44 22 45 3 62 -25 23 -32 23
-49 -4z"/>
<path d="M2300 1629 c0 -5 5 -7 10 -4 6 3 10 8 10 11 0 2 -4 4 -10 4 -5 0 -10
-5 -10 -11z"/>
<path d="M2579 1596 c-35 -12 -99 -53 -99 -62 0 -3 9 0 19 6 39 20 72 30 66
19 -4 -6 -17 -14 -29 -19 l-21 -9 23 0 c12 -1 22 3 22 8 0 10 47 26 88 30 17
2 15 28 -4 35 -20 8 -22 8 -65 -8z"/>
<path d="M2670 1600 c0 -5 5 -10 11 -10 5 0 7 5 4 10 -3 6 -8 10 -11 10 -2 0
-4 -4 -4 -10z"/>
<path d="M2883 1593 c9 -2 25 -2 35 0 9 3 1 5 -18 5 -19 0 -27 -2 -17 -5z"/>
<path d="M3060 1585 c0 -8 2 -15 4 -15 2 0 6 7 10 15 3 8 1 15 -4 15 -6 0 -10
-7 -10 -15z"/>
<path d="M3096 1585 c4 -8 13 -15 21 -15 13 0 13 3 3 15 -7 8 -16 15 -21 15
-5 0 -6 -7 -3 -15z"/>
<path d="M1430 1561 c0 -29 15 -33 16 -5 1 13 -2 24 -7 24 -5 0 -9 -9 -9 -19z"/>
<path d="M3020 1558 c0 -19 2 -20 10 -8 13 19 13 30 0 30 -5 0 -10 -10 -10
-22z"/>
<path d="M2953 1540 c-16 -7 -23 -18 -23 -36 l0 -27 25 27 c20 22 33 48 23 45
-2 0 -13 -4 -25 -9z"/>
<path d="M2820 1511 c0 -5 5 -13 10 -16 6 -3 10 -2 10 4 0 5 -4 13 -10 16 -5
3 -10 2 -10 -4z"/>
<path d="M2160 1420 c0 -5 5 -10 10 -10 6 0 10 5 10 10 0 6 -4 10 -10 10 -5 0
-10 -4 -10 -10z"/>
<path d="M3320 1120 c-8 -5 -10 -10 -5 -10 6 0 17 5 25 10 8 5 11 10 5 10 -5
0 -17 -5 -25 -10z"/>
<path d="M3430 1004 c-41 -25 -86 -47 -100 -50 -14 -3 -56 -14 -95 -25 -87
-26 -412 -38 -541 -21 -87 12 -250 61 -286 86 -20 15 -24 14 -45 -6 -13 -12
-23 -25 -23 -30 0 -15 73 -89 118 -120 45 -31 137 -60 252 -79 101 -17 142
-30 181 -61 26 -20 48 -28 76 -28 41 0 103 24 103 41 0 5 15 9 34 9 19 0 37 4
40 9 3 4 23 11 43 15 106 17 268 139 310 234 24 55 28 73 16 71 -5 -1 -42 -21
-83 -45z"/>
<path d="M3210 1030 c0 -5 5 -10 10 -10 6 0 10 5 10 10 0 6 -4 10 -10 10 -5 0
-10 -4 -10 -10z"/>
<path d="M2955 1005 c4 -31 -8 -32 -27 -4 -12 19 -17 20 -36 10 -18 -9 -20
-16 -12 -30 10 -20 40 -36 40 -21 0 4 16 4 37 -2 44 -12 91 -4 108 19 12 16
40 9 30 -8 -9 -13 18 -11 51 4 16 6 30 20 30 30 2 15 -4 16 -32 11 -22 -4 -34
-2 -34 5 0 20 -28 12 -33 -10 -6 -23 -27 -17 -27 7 0 19 -16 18 -24 -2 -5 -14
-8 -14 -28 0 -32 23 -46 20 -43 -9z"/>
<path d="M1275 804 c-27 -7 -87 -21 -133 -30 -46 -9 -79 -20 -75 -24 15 -14
196 17 253 43 63 29 40 35 -45 11z"/>
<path d="M1646 751 c-4 -5 -9 -31 -12 -58 -7 -59 12 -38 22 25 6 40 2 53 -10
33z"/>
<path d="M1590 406 c0 -14 5 -26 10 -26 6 0 10 9 10 19 0 11 -4 23 -10 26 -6
4 -10 -5 -10 -19z"/>
</g>
</svg>
