<?xml version="1.0" standalone="no"?>
<!DOCTYPE svg PUBLIC "-//W3C//DTD SVG 20010904//EN"
 "http://www.w3.org/TR/2001/REC-SVG-20010904/DTD/svg10.dtd">
<svg version="1.0" xmlns="http://www.w3.org/2000/svg"
 width="842.000000pt" height="595.000000pt" viewBox="0 0 842.000000 595.000000"
 preserveAspectRatio="xMidYMid meet">

<g transform="translate(0.000000,595.000000) scale(0.100000,-0.100000)"
fill="#000000" stroke="none">
<path d="M46 5902 c-4 -7 4855 -5 4899 2 11 2 -1086 4 -2437 5 -1351 0 -2459
-2 -2462 -7z"/>
<path d="M5102 5903 c59 -2 158 -2 220 0 62 1 14 3 -107 3 -121 0 -172 -2
-113 -3z"/>
<path d="M5977 5903 c288 -2 758 -2 1045 0 288 1 53 2 -522 2 -575 0 -810 -1
-523 -2z"/>
<path d="M8351 5893 c9 -10 16 -54 20 -117 l6 -101 1 118 c2 113 1 117 -19
117 -19 0 -20 -2 -8 -17z"/>
<path d="M2898 5403 c6 -2 18 -2 25 0 6 3 1 5 -13 5 -14 0 -19 -2 -12 -5z"/>
<path d="M3048 5403 c6 -2 18 -2 25 0 6 3 1 5 -13 5 -14 0 -19 -2 -12 -5z"/>
<path d="M4178 5403 c12 -2 32 -2 45 0 12 2 2 4 -23 4 -25 0 -35 -2 -22 -4z"/>
<path d="M4348 5403 c7 -3 16 -2 19 1 4 3 -2 6 -13 5 -11 0 -14 -3 -6 -6z"/>
<path d="M4403 5403 c9 -2 23 -2 30 0 6 3 -1 5 -18 5 -16 0 -22 -2 -12 -5z"/>
<path d="M5133 5403 c9 -2 23 -2 30 0 6 3 -1 5 -18 5 -16 0 -22 -2 -12 -5z"/>
<path d="M5283 5403 c15 -2 39 -2 55 0 15 2 2 4 -28 4 -30 0 -43 -2 -27 -4z"/>
<path d="M5828 5403 c7 -3 16 -2 19 1 4 3 -2 6 -13 5 -11 0 -14 -3 -6 -6z"/>
<path d="M6593 5403 c9 -2 25 -2 35 0 9 3 1 5 -18 5 -19 0 -27 -2 -17 -5z"/>
<path d="M6748 5403 c12 -2 30 -2 40 0 9 3 -1 5 -23 4 -22 0 -30 -2 -17 -4z"/>
<path d="M1628 5283 c6 -2 18 -2 25 0 6 3 1 5 -13 5 -14 0 -19 -2 -12 -5z"/>
<path d="M1788 5283 c7 -3 16 -2 19 1 4 3 -2 6 -13 5 -11 0 -14 -3 -6 -6z"/>
<path d="M2598 4343 c12 -2 32 -2 45 0 12 2 2 4 -23 4 -25 0 -35 -2 -22 -4z"/>
<path d="M3573 4343 c483 -2 1271 -2 1750 0 480 1 85 2 -878 2 -962 0 -1355
-1 -872 -2z"/>
<path d="M6278 4343 c6 -2 18 -2 25 0 6 3 1 5 -13 5 -14 0 -19 -2 -12 -5z"/>
<path d="M6428 4343 c28 -2 76 -2 105 0 28 2 5 3 -53 3 -58 0 -81 -1 -52 -3z"/>
<path d="M2483 3875 c-48 -33 -54 -136 -12 -189 34 -43 139 -34 139 12 0 9 -6
11 -22 6 -64 -22 -98 3 -98 73 0 65 41 99 90 73 25 -13 35 4 14 24 -20 20 -83
21 -111 1z"/>
<path d="M2650 3775 l0 -115 66 0 c57 0 65 2 62 18 -2 12 -15 18 -46 20 -39 3
-42 5 -42 33 0 27 3 29 35 29 28 0 35 4 35 20 0 16 -7 20 -35 20 -32 0 -35 2
-35 30 0 29 2 30 45 30 33 0 45 4 45 15 0 12 -14 15 -65 15 l-65 0 0 -115z"/>
<path d="M2820 3775 c0 -108 1 -115 20 -115 17 0 20 7 20 44 0 73 37 73 65 0
13 -35 21 -44 41 -44 24 0 24 0 9 37 -9 20 -20 42 -26 49 -8 9 -4 21 12 43 19
26 20 33 10 59 -14 34 -34 42 -103 42 l-48 0 0 -115z m103 63 c14 -22 -7 -48
-39 -48 -20 0 -24 5 -24 28 0 16 3 32 7 36 12 11 45 2 56 -16z"/>
<path d="M3000 3876 c0 -9 12 -16 33 -18 l32 -3 3 -97 c2 -90 4 -98 22 -98 19
0 20 7 20 100 l0 100 30 0 c20 0 30 5 30 15 0 12 -16 15 -85 15 -67 0 -85 -3
-85 -14z"/>
<path d="M3210 3775 c0 -108 1 -115 20 -115 19 0 20 7 20 115 0 108 -1 115
-20 115 -19 0 -20 -7 -20 -115z"/>
<path d="M3307 3883 c-4 -3 -7 -55 -7 -115 0 -108 0 -109 23 -106 19 3 22 10
25 51 3 46 4 47 38 47 24 0 34 5 34 15 0 10 -11 15 -35 15 -33 0 -35 2 -35 35
0 34 1 35 40 35 29 0 40 4 40 15 0 12 -13 15 -58 15 -32 0 -62 -3 -65 -7z"/>
<path d="M3480 3775 c0 -108 1 -115 20 -115 19 0 20 7 20 115 0 108 -1 115
-20 115 -19 0 -20 -7 -20 -115z"/>
<path d="M3614 3875 c-53 -36 -58 -150 -9 -192 39 -34 125 -30 125 6 0 13 -8
15 -43 13 -53 -5 -70 12 -69 69 1 72 41 106 93 79 16 -9 19 -7 19 9 0 10 -7
22 -16 25 -28 11 -79 6 -100 -9z"/>
<path d="M3825 3878 c-45 -124 -65 -184 -65 -200 0 -27 29 -22 40 7 8 22 16
25 55 25 39 0 47 -4 57 -25 10 -22 48 -36 48 -17 0 4 -17 55 -37 115 -36 101
-39 107 -66 107 -15 0 -30 -6 -32 -12z m48 -70 c2 -13 8 -31 12 -40 6 -15 2
-18 -28 -18 l-35 0 10 38 c6 20 12 40 15 45 7 12 20 -1 26 -25z"/>
<path d="M3950 3875 c0 -10 10 -15 30 -15 l30 0 0 -100 c0 -93 1 -100 20 -100
18 0 20 8 22 98 l3 97 33 3 c20 2 32 9 32 18 0 11 -18 14 -85 14 -69 0 -85 -3
-85 -15z"/>
<path d="M4144 3877 c-2 -7 -3 -58 -2 -113 l3 -99 54 -3 c64 -4 83 2 75 23 -4
10 -19 15 -45 15 -37 0 -39 2 -39 30 0 28 3 30 35 30 28 0 35 4 35 20 0 16 -7
20 -35 20 -32 0 -35 2 -35 29 0 28 3 30 43 33 64 5 50 23 -21 26 -46 2 -64 -1
-68 -11z"/>
<path d="M4433 3866 c-25 -22 -28 -30 -28 -91 0 -61 2 -69 28 -91 42 -36 109
-34 148 5 26 26 29 36 29 91 0 51 -4 65 -25 85 -34 35 -112 35 -152 1z m121
-28 c25 -35 20 -94 -9 -123 -28 -29 -42 -31 -73 -9 -18 12 -22 25 -22 66 0 34
6 58 17 70 23 25 68 23 87 -4z"/>
<path d="M4670 3775 c0 -108 1 -115 20 -115 17 0 20 7 20 51 l0 51 38 -4 c28
-2 37 1 37 12 0 10 -12 16 -37 18 -36 3 -38 5 -38 38 0 33 1 34 40 34 29 0 40
4 40 15 0 12 -13 15 -60 15 l-60 0 0 -115z"/>
<path d="M4917 3883 c-4 -3 -7 -55 -7 -115 l0 -108 25 0 c23 0 25 3 25 50 0
28 4 50 9 50 16 0 39 -29 52 -65 10 -26 19 -35 36 -35 28 0 28 1 -1 59 -23 46
-23 48 -5 70 43 53 8 101 -74 101 -30 0 -57 -3 -60 -7z m101 -52 c4 -25 -12
-41 -40 -41 -14 0 -18 8 -18 36 0 33 2 35 28 32 20 -2 28 -9 30 -27z"/>
<path d="M5120 3775 l0 -115 66 0 c57 0 65 2 62 18 -2 12 -15 18 -46 20 -39 3
-42 5 -42 33 0 27 2 29 41 29 33 0 40 3 37 18 -2 12 -14 18 -41 20 -35 3 -38
6 -35 30 3 24 8 27 46 30 28 2 42 8 42 18 0 11 -15 14 -65 14 l-65 0 0 -115z"/>
<path d="M5327 3879 c-51 -30 -63 -131 -21 -186 22 -29 30 -33 73 -33 47 0 71
12 71 38 0 9 -6 11 -22 6 -64 -22 -98 3 -98 73 0 70 38 95 103 68 20 -8 24 14
5 33 -15 15 -86 15 -111 1z"/>
<path d="M5529 3883 c-53 -14 -67 -166 -19 -205 34 -28 111 -25 147 6 25 22
28 30 28 89 0 55 -4 69 -24 91 -20 21 -33 26 -70 25 -25 -1 -53 -3 -62 -6z
m95 -36 c12 -9 17 -28 18 -66 1 -45 -2 -57 -21 -72 -47 -38 -91 -15 -98 52 -8
74 49 124 101 86z"/>
<path d="M5777 3870 c-57 -45 -59 -139 -5 -185 26 -22 38 -26 87 -23 l56 3 3
63 3 62 -46 0 c-33 0 -45 -4 -45 -15 0 -9 9 -15 25 -15 21 0 25 -5 25 -29 0
-35 -27 -48 -62 -30 -32 17 -38 28 -38 76 0 64 51 98 112 75 24 -9 28 -8 28 8
0 22 -19 30 -74 30 -28 0 -52 -7 -69 -20z"/>
<path d="M5980 3775 c0 -91 3 -115 14 -115 16 0 26 42 27 119 l0 56 45 -88
c41 -81 47 -88 72 -85 l27 3 3 113 c3 106 2 112 -17 112 -18 0 -20 -8 -23 -82
l-3 -83 -44 83 c-39 74 -46 82 -72 82 l-29 0 0 -115z"/>
<path d="M6220 3775 c0 -108 1 -115 20 -115 19 0 20 7 20 115 0 108 -1 115
-20 115 -19 0 -20 -7 -20 -115z"/>
<path d="M6300 3876 c0 -9 12 -16 28 -18 l27 -3 3 -97 c2 -89 4 -98 22 -98 18
0 20 9 22 98 l3 97 33 3 c20 2 32 9 32 18 0 11 -18 14 -85 14 -67 0 -85 -3
-85 -14z"/>
<path d="M6500 3775 c0 -113 0 -115 23 -115 22 0 22 3 24 115 l2 115 -25 0
-24 0 0 -115z"/>
<path d="M6619 3861 c-43 -44 -45 -141 -3 -178 36 -33 116 -32 149 1 46 46 45
149 -2 186 -40 32 -107 28 -144 -9z m109 -17 c18 -12 22 -25 22 -69 0 -44 -4
-57 -22 -69 -53 -37 -98 -4 -98 71 0 68 49 102 98 67z"/>
<path d="M6857 3883 c-4 -3 -7 -55 -7 -115 0 -101 1 -108 20 -108 17 0 20 8
22 85 l3 85 45 -85 c39 -76 47 -85 72 -85 l28 0 0 115 c0 108 -1 115 -20 115
-18 0 -20 -7 -20 -82 l0 -83 -46 83 c-36 65 -50 82 -68 82 -12 0 -26 -3 -29
-7z"/>
<path d="M213 2793 c15 -2 37 -2 50 0 12 2 0 4 -28 4 -27 0 -38 -2 -22 -4z"/>
<path d="M703 2793 c87 -2 227 -2 310 0 84 1 13 3 -158 3 -171 0 -239 -2 -152
-3z"/>
<path d="M1513 2793 c31 -2 83 -2 115 0 31 2 5 3 -58 3 -63 0 -89 -1 -57 -3z"/>
<path d="M3280 2490 c8 -5 20 -10 25 -10 6 0 3 5 -5 10 -8 5 -19 10 -25 10 -5
0 -3 -5 5 -10z"/>
<path d="M3233 2440 c0 -25 2 -35 4 -22 2 12 2 32 0 45 -2 12 -4 2 -4 -23z"/>
<path d="M3431 2464 c0 -11 3 -14 6 -6 3 7 2 16 -1 19 -3 4 -6 -2 -5 -13z"/>
<path d="M3520 2450 c-24 -24 -25 -43 -4 -64 22 -23 31 -20 10 3 -25 27 -12
59 27 70 25 7 27 9 10 10 -13 1 -32 -8 -43 -19z"/>
<path d="M3356 2447 c3 -10 9 -15 12 -12 3 3 0 11 -7 18 -10 9 -11 8 -5 -6z"/>
<path d="M5513 2415 c0 -27 2 -38 4 -22 2 15 2 37 0 50 -2 12 -4 0 -4 -28z"/>
<path d="M5842 2446 c7 -8 15 -12 17 -11 5 6 -10 25 -20 25 -5 0 -4 -6 3 -14z"/>
<path d="M3815 2440 c3 -5 8 -10 11 -10 2 0 4 5 4 10 0 6 -5 10 -11 10 -5 0
-7 -4 -4 -10z"/>
<path d="M3907 2409 c-43 -44 -39 -54 5 -13 l27 27 12 -27 c7 -14 16 -26 20
-26 4 0 1 13 -7 30 -9 16 -13 34 -9 40 13 22 -12 5 -48 -31z"/>
<path d="M5088 2443 c6 -2 18 -2 25 0 6 3 1 5 -13 5 -14 0 -19 -2 -12 -5z"/>
<path d="M5370 2440 c0 -5 5 -10 10 -10 6 0 10 5 10 10 0 6 -4 10 -10 10 -5 0
-10 -4 -10 -10z"/>
<path d="M5923 2435 c-9 -24 1 -27 15 -5 8 13 8 20 2 20 -6 0 -13 -7 -17 -15z"/>
<path d="M5983 2439 c9 -5 17 -18 18 -27 0 -11 2 -12 6 -4 6 15 -14 42 -31 42
-6 0 -3 -5 7 -11z"/>
<path d="M6272 2441 c-8 -4 -14 -24 -15 -42 -2 -33 -1 -34 38 -35 l40 -1 -38
4 c-36 4 -38 6 -32 31 8 33 4 30 51 41 l39 9 -35 1 c-19 0 -41 -3 -48 -8z"/>
<path d="M6428 2443 c7 -3 16 -2 19 1 4 3 -2 6 -13 5 -11 0 -14 -3 -6 -6z"/>
<path d="M6545 2427 c-15 -30 -3 -71 20 -75 20 -4 20 -4 1 11 -29 21 -15 44
26 41 31 -3 32 -3 4 4 -16 4 -32 15 -35 24 -5 15 -7 14 -16 -5z"/>
<path d="M3423 2395 c0 -27 2 -38 4 -22 2 15 2 37 0 50 -2 12 -4 0 -4 -28z"/>
<path d="M4529 2426 c7 -8 9 -27 6 -43 -5 -25 -4 -25 4 -6 10 22 11 22 39 6
29 -17 31 -16 65 10 43 33 44 33 50 5 3 -17 5 -14 6 10 0 17 -2 32 -5 32 -3 0
-23 -14 -45 -32 -37 -29 -41 -30 -66 -17 -14 8 -28 22 -31 32 -2 9 -11 17 -19
17 -12 0 -13 -3 -4 -14z"/>
<path d="M5475 2420 c-22 -25 -33 -25 -59 -3 -15 13 -14 10 3 -10 14 -15 27
-27 30 -26 7 0 55 59 48 59 -2 0 -12 -9 -22 -20z"/>
<path d="M5625 2420 c-15 -16 -15 -22 -5 -35 7 -8 17 -15 23 -15 6 0 2 6 -8
14 -19 14 -19 15 -1 35 11 12 17 21 14 21 -3 0 -13 -9 -23 -20z"/>
<path d="M6135 2420 c-17 -19 -17 -21 0 -40 12 -14 29 -19 54 -18 l36 1 -37 4
c-67 7 -74 56 -10 66 l27 4 -26 2 c-15 0 -34 -8 -44 -19z"/>
<path d="M6484 2419 c0 -10 4 -19 8 -19 4 0 8 6 8 14 0 8 -4 17 -8 20 -4 2 -8
-4 -8 -15z"/>
<path d="M3706 2399 c-8 -42 0 -50 9 -9 4 17 5 34 2 36 -2 3 -7 -10 -11 -27z"/>
<path d="M4023 2406 c1 -16 9 -32 17 -34 12 -4 13 -2 4 9 -7 8 -14 23 -17 34
-4 13 -5 9 -4 -9z"/>
<path d="M4439 2408 c30 -35 19 -52 -28 -44 -25 4 -31 2 -21 -4 23 -15 56 -12
70 6 11 13 9 19 -16 42 l-28 27 23 -27z"/>
<path d="M4810 2415 c-11 -13 -10 -14 4 -9 12 5 19 0 23 -15 3 -11 9 -21 14
-21 5 0 3 14 -6 30 -18 35 -18 35 -35 15z"/>
<path d="M4984 2408 l-19 -23 23 19 c12 11 22 21 22 23 0 8 -8 2 -26 -19z"/>
<path d="M5109 2398 c-3 -22 -1 -34 4 -29 5 5 7 21 5 37 -3 27 -4 26 -9 -8z"/>
<path d="M5784 2395 c-8 -25 -8 -33 -1 -26 6 6 22 12 37 12 22 2 23 2 3 6 -12
2 -23 13 -25 24 -2 15 -6 11 -14 -16z"/>
<path d="M6420 2420 c-9 -74 -9 -76 2 -53 6 12 18 24 27 26 14 4 14 5 -1 6 -9
0 -19 9 -21 19 -4 13 -5 13 -7 2z"/>
<path d="M3588 2413 c23 -3 32 -9 32 -24 0 -15 -7 -19 -37 -19 -44 0 -38 -11
6 -12 21 -1 31 -6 31 -16 0 -32 12 -2 13 35 2 38 2 38 -38 39 -32 1 -34 1 -7
-3z"/>
<path d="M3812 2400 c0 -14 2 -19 5 -12 2 6 2 18 0 25 -3 6 -5 1 -5 -13z"/>
<path d="M6053 2404 c24 -29 21 -37 -10 -30 -21 5 -24 4 -13 -4 21 -14 50 -12
50 3 0 8 -10 22 -22 33 -23 19 -23 19 -5 -2z"/>
<path d="M6367 2401 c-4 -17 -3 -21 5 -13 5 5 8 16 6 23 -3 8 -7 3 -11 -10z"/>
<path d="M4926 2387 c-7 -27 -4 -30 17 -14 13 10 14 14 2 24 -10 9 -14 8 -19
-10z"/>
<path d="M4770 2390 c-13 -8 -12 -10 3 -10 9 0 17 5 17 10 0 12 -1 12 -20 0z"/>
<path d="M5920 2391 c0 -10 29 -36 34 -30 1 2 -6 12 -16 22 -10 9 -18 13 -18
8z"/>
<path d="M5571 2374 c0 -11 3 -14 6 -6 3 7 2 16 -1 19 -3 4 -6 -2 -5 -13z"/>
<path d="M5725 2380 c-13 -6 -15 -9 -5 -9 8 0 22 4 30 9 18 12 2 12 -25 0z"/>
<path d="M3214 2371 c3 -5 15 -7 26 -4 28 7 25 13 -6 13 -14 0 -23 -4 -20 -9z"/>
<path d="M3303 2363 c9 -2 23 -2 30 0 6 3 -1 5 -18 5 -16 0 -22 -2 -12 -5z"/>
<path d="M4970 2366 c0 -2 15 -6 34 -8 19 -2 32 0 30 4 -5 8 -64 12 -64 4z"/>
<path d="M3637 2283 c733 -2 1933 -2 2665 0 733 1 134 2 -1332 2 -1466 0
-2065 -1 -1333 -2z"/>
<path d="M2400 1995 c0 -30 5 -55 10 -55 6 0 10 25 10 55 0 30 -4 55 -10 55
-5 0 -10 -25 -10 -55z"/>
<path d="M3020 2039 c0 -5 5 -7 10 -4 6 3 10 8 10 11 0 2 -4 4 -10 4 -5 0 -10
-5 -10 -11z"/>
<path d="M3457 2032 c-2 -11 -1 -37 3 -58 l8 -39 1 38 c1 22 6 37 14 37 8 0 7
4 -3 10 -13 9 -13 11 0 20 13 8 13 10 -1 10 -9 0 -19 -8 -22 -18z"/>
<path d="M4032 1995 c1 -46 2 -52 7 -26 8 43 28 51 37 14 10 -47 13 -50 11 -8
-2 33 -6 41 -24 43 -12 2 -24 11 -26 20 -3 9 -5 -10 -5 -43z"/>
<path d="M5335 2033 c-10 -23 -6 -75 6 -87 8 -9 15 49 10 78 -1 5 4 13 11 17
10 7 9 9 -3 9 -9 0 -20 -8 -24 -17z"/>
<path d="M5470 2000 c0 -52 16 -70 22 -23 5 43 28 41 28 -3 0 -26 3 -35 10
-28 17 17 0 74 -21 74 -11 0 -19 7 -19 15 0 8 -4 15 -10 15 -5 0 -10 -22 -10
-50z"/>
<path d="M5687 2043 c-4 -3 -7 -17 -7 -30 0 -17 6 -23 21 -23 14 0 19 -5 17
-17 -3 -12 -12 -17 -26 -16 -14 2 -21 -1 -17 -7 8 -14 38 -13 53 2 19 19 14
37 -13 50 -30 14 -33 28 -5 28 11 0 20 5 20 10 0 11 -33 14 -43 3z"/>
<path d="M5778 2039 c-12 -6 -18 -22 -18 -43 0 -41 24 -65 48 -49 21 12 28 69
11 89 -13 16 -18 17 -41 3z m42 -43 c0 -11 -4 -27 -9 -35 -8 -12 -12 -12 -25
-2 -19 16 -21 52 -4 69 16 16 38 -3 38 -32z"/>
<path d="M7248 2033 c-2 -10 -1 -36 3 -58 l6 -40 2 38 c0 22 6 37 14 37 8 0 7
4 -3 10 -13 9 -13 11 0 20 13 8 13 10 -1 10 -9 0 -18 -8 -21 -17z"/>
<path d="M7393 1995 c0 -33 2 -45 4 -27 2 17 8 32 14 32 5 0 12 0 17 0 4 1 10
-14 14 -32 6 -31 6 -31 5 7 -2 33 -6 40 -22 40 -11 0 -23 9 -27 20 -3 11 -6
-7 -5 -40z"/>
<path d="M3069 2029 c-9 -25 5 -82 21 -87 12 -4 13 -2 3 9 -21 21 -16 59 6 59
15 0 21 -8 24 -37 l4 -38 1 43 c2 38 0 42 -22 42 -13 0 -26 5 -28 12 -3 8 -6
7 -9 -3z"/>
<path d="M4688 2027 c-8 -23 7 -80 22 -85 12 -4 13 -2 3 9 -15 15 -17 56 -4
61 5 2 3 8 -4 15 -10 9 -14 9 -17 0z"/>
<path d="M5418 2028 c-7 -23 7 -81 20 -86 11 -3 11 -1 0 17 -10 16 -10 25 -1
40 10 15 9 22 -1 30 -10 9 -15 8 -18 -1z"/>
<path d="M7338 2029 c-2 -6 -2 -28 0 -50 3 -28 9 -39 21 -38 10 0 11 2 4 6
-15 5 -18 60 -4 65 5 2 3 8 -4 15 -9 8 -15 9 -17 2z"/>
<path d="M2451 1976 c2 -29 3 -33 6 -14 2 14 11 32 18 38 16 13 20 8 29 -40 2
-14 3 -7 3 15 -2 36 -5 40 -29 41 -26 1 -28 -1 -27 -40z"/>
<path d="M2570 1983 c0 -18 5 -33 10 -33 6 0 10 10 10 23 0 13 5 28 11 34 9 9
7 12 -10 10 -17 -1 -21 -8 -21 -34z"/>
<path d="M2630 2005 c-18 -21 2 -65 30 -65 11 0 20 4 20 9 0 5 -7 8 -16 7 -9
0 -19 5 -21 12 -3 7 5 12 21 12 28 0 33 9 14 28 -16 16 -33 15 -48 -3z m40 -5
c0 -5 -7 -10 -15 -10 -8 0 -15 5 -15 10 0 6 7 10 15 10 8 0 15 -4 15 -10z"/>
<path d="M2717 2013 c-4 -3 -7 -19 -7 -35 0 -31 24 -48 42 -30 7 7 4 10 -8 9
-14 -2 -19 5 -19 23 0 18 5 25 17 24 10 -1 15 2 12 7 -6 11 -28 12 -37 2z"/>
<path d="M2780 2001 c-8 -15 -8 -27 0 -41 20 -38 63 -18 58 26 -4 37 -41 46
-58 15z m45 -21 c0 -27 -22 -39 -31 -16 -8 22 3 49 19 43 6 -2 12 -14 12 -27z"/>
<path d="M2866 2008 c-11 -34 -14 -88 -5 -88 5 0 8 5 7 12 -2 6 6 14 16 16 14
3 17 0 12 -13 -4 -11 -2 -15 6 -13 23 8 19 27 -8 34 -26 7 -26 8 -7 15 11 4
23 17 26 28 4 17 1 21 -19 21 -14 0 -26 -6 -28 -12z m34 -13 c0 -8 -7 -15 -15
-15 -16 0 -20 12 -8 23 11 12 23 8 23 -8z"/>
<path d="M2941 1975 l2 -40 6 35 c4 22 12 35 21 35 9 0 17 -13 21 -35 6 -34 6
-34 8 -5 1 39 -10 54 -37 52 -19 -1 -22 -7 -21 -42z"/>
<path d="M3020 1979 c0 -24 4 -38 10 -34 6 3 10 22 10 41 0 19 -4 34 -10 34
-5 0 -10 -18 -10 -41z"/>
<path d="M3162 2008 c-29 -29 -1 -75 38 -63 17 5 20 13 18 38 -3 35 -33 48
-56 25z m43 -28 c0 -36 -29 -33 -33 3 -3 23 0 28 15 25 12 -2 18 -12 18 -28z"/>
<path d="M3247 2013 c-11 -10 -8 -63 2 -63 5 0 11 12 13 27 4 39 28 42 28 4 0
-17 5 -31 10 -31 11 0 13 30 4 54 -6 16 -45 22 -57 9z"/>
<path d="M3370 2005 c-20 -24 3 -67 33 -63 18 2 22 9 22 38 0 28 -4 36 -21 38
-11 2 -27 -4 -34 -13z m45 -25 c0 -27 -22 -39 -31 -16 -8 22 3 49 19 43 6 -2
12 -14 12 -27z"/>
<path d="M3545 1979 c8 -23 12 -45 9 -50 -3 -5 -1 -9 4 -9 5 0 14 17 21 38 7
20 15 43 17 50 3 6 1 12 -5 12 -6 0 -11 -9 -11 -19 0 -30 -19 -35 -26 -6 -3
14 -10 25 -15 25 -4 0 -2 -18 6 -41z"/>
<path d="M3617 2013 c-4 -3 -7 -19 -7 -34 0 -19 6 -30 20 -34 39 -12 66 35 38
63 -13 13 -41 16 -51 5z m47 -20 c8 -19 -17 -48 -33 -39 -12 8 -15 39 -4 49
12 12 31 7 37 -10z"/>
<path d="M3703 1985 c2 -36 5 -40 30 -41 25 -1 27 1 26 40 -2 29 -3 33 -6 14
-2 -14 -11 -32 -18 -38 -16 -13 -20 -8 -29 40 -2 14 -3 7 -3 -15z"/>
<path d="M3781 1980 c1 -21 3 -27 6 -15 3 11 12 28 20 37 14 15 13 17 -6 15
-17 -1 -21 -7 -20 -37z"/>
<path d="M3880 2011 c0 -6 6 -8 14 -5 8 3 17 1 20 -4 3 -6 -6 -13 -20 -16 -35
-9 -28 -41 9 -42 26 -1 28 1 25 35 -2 29 -8 37 -25 39 -13 2 -23 -1 -23 -7z
m40 -40 c0 -12 -20 -25 -27 -18 -7 7 6 27 18 27 5 0 9 -4 9 -9z"/>
<path d="M3954 2006 c-15 -39 24 -83 48 -57 11 12 10 13 -4 8 -21 -7 -40 15
-32 38 4 10 14 15 25 12 11 -3 17 -1 13 4 -8 14 -44 10 -50 -5z"/>
<path d="M4110 1998 c0 -13 5 -30 10 -38 7 -11 10 -5 10 23 0 20 -4 37 -10 37
-5 0 -10 -10 -10 -22z"/>
<path d="M4154 2006 c-16 -43 20 -86 49 -57 9 9 5 11 -12 9 -13 -2 -26 3 -28
10 -3 7 5 12 22 12 20 0 26 4 23 18 -4 22 -46 29 -54 8z m41 -6 c3 -5 -3 -10
-15 -10 -12 0 -18 5 -15 10 3 6 10 10 15 10 5 0 12 -4 15 -10z"/>
<path d="M4230 2008 c0 -21 20 -68 30 -68 8 0 31 72 25 78 -2 3 -10 -8 -16
-24 l-11 -29 -14 30 c-8 18 -13 23 -14 13z"/>
<path d="M4304 2006 c-16 -41 20 -86 47 -59 6 6 1 9 -12 9 -12 -1 -24 5 -26
12 -3 7 5 12 22 12 20 0 26 4 23 18 -4 22 -46 29 -54 8z m41 -6 c3 -5 -3 -10
-15 -10 -12 0 -18 5 -15 10 3 6 10 10 15 10 5 0 12 -4 15 -10z"/>
<path d="M4380 1985 c0 -41 17 -47 22 -7 4 36 22 31 29 -10 6 -29 7 -30 8 -7
0 15 8 32 16 39 16 13 20 8 29 -40 2 -14 3 -7 3 15 l-2 40 -52 2 -53 3 0 -35z"/>
<path d="M4522 2008 c-25 -25 -6 -68 30 -68 10 0 18 4 18 9 0 5 -7 8 -16 7 -9
0 -19 5 -21 12 -3 7 5 12 21 12 14 0 26 4 26 8 0 12 -22 32 -35 32 -6 0 -16
-5 -23 -12z m38 -8 c0 -5 -7 -10 -15 -10 -8 0 -15 5 -15 10 0 6 7 10 15 10 8
0 15 -4 15 -10z"/>
<path d="M4601 1976 l2 -41 6 35 c4 22 12 35 21 35 9 0 18 -13 22 -35 l6 -35
-1 40 c-2 36 -5 40 -29 41 -26 1 -28 -1 -27 -40z"/>
<path d="M4775 2010 c-5 -9 -1 -10 13 -6 11 4 23 3 26 -3 3 -5 -6 -12 -20 -15
-35 -9 -28 -41 9 -42 26 -1 28 1 25 35 -2 28 -8 37 -25 39 -11 2 -24 -2 -28
-8z m43 -42 c-6 -18 -28 -21 -28 -4 0 9 7 16 16 16 9 0 14 -5 12 -12z"/>
<path d="M4855 2009 c-4 -5 0 -18 9 -28 20 -22 21 -35 1 -27 -8 3 -15 1 -15
-4 0 -14 37 -12 46 2 4 6 -2 19 -14 29 -27 21 -27 26 -4 32 15 4 15 5 0 6 -9
0 -20 -4 -23 -10z"/>
<path d="M4957 2013 c-4 -3 -7 -19 -7 -34 0 -19 6 -30 20 -34 39 -12 66 35 38
63 -13 13 -41 16 -51 5z m41 -30 c-3 -30 -25 -42 -34 -19 -9 22 2 46 21 46 12
0 15 -8 13 -27z"/>
<path d="M5041 1976 l2 -41 6 35 c4 22 12 35 21 35 9 0 18 -13 22 -35 l6 -35
-1 40 c-2 36 -5 40 -29 41 -26 1 -28 -1 -27 -40z"/>
<path d="M5132 2008 c-26 -26 -6 -69 33 -67 19 0 19 1 -2 9 -31 12 -29 30 2
30 14 0 25 4 25 8 0 12 -22 32 -35 32 -6 0 -16 -5 -23 -12z m38 -8 c0 -5 -7
-10 -15 -10 -8 0 -15 5 -15 10 0 6 7 10 15 10 8 0 15 -4 15 -10z"/>
<path d="M5250 2005 c-15 -18 -10 -45 12 -59 26 -16 53 14 44 48 -7 29 -36 35
-56 11z m48 -20 c4 -16 -12 -34 -29 -35 -14 0 -19 33 -8 47 15 17 33 12 37
-12z"/>
<path d="M5564 2006 c-12 -31 0 -61 26 -63 25 -3 25 -3 3 7 -31 13 -29 30 3
30 19 0 25 5 22 18 -4 22 -46 29 -54 8z m41 -6 c3 -5 -3 -10 -15 -10 -12 0
-18 5 -15 10 3 6 10 10 15 10 5 0 12 -4 15 -10z"/>
<path d="M5893 2013 c-15 -6 -18 -63 -3 -63 6 0 10 10 10 23 0 13 5 28 12 35
12 12 3 15 -19 5z"/>
<path d="M5943 1985 c2 -36 5 -40 30 -41 25 -1 27 1 26 40 -2 29 -3 33 -6 14
-2 -14 -11 -32 -18 -38 -16 -13 -20 -8 -29 40 -2 14 -3 7 -3 -15z"/>
<path d="M6043 2013 c-8 -3 -12 -20 -12 -41 l2 -37 6 34 c8 45 31 54 31 12 0
-17 5 -31 10 -31 13 0 13 26 0 51 -11 19 -16 21 -37 12z"/>
<path d="M6111 1976 c2 -29 3 -33 6 -14 2 14 11 32 18 38 16 13 20 8 29 -40 2
-14 3 -7 3 15 -2 36 -5 40 -29 41 -26 1 -28 -1 -27 -40z"/>
<path d="M6202 2008 c-26 -26 -6 -69 33 -67 19 0 19 1 -2 9 -31 12 -29 30 2
30 14 0 25 4 25 8 0 12 -22 32 -35 32 -6 0 -16 -5 -23 -12z m38 -8 c0 -5 -7
-10 -16 -10 -8 0 -12 5 -9 10 3 6 10 10 16 10 5 0 9 -4 9 -10z"/>
<path d="M6281 1975 c1 -27 3 -32 6 -15 3 14 12 33 20 42 14 15 13 17 -6 15
-18 -1 -21 -7 -20 -42z"/>
<path d="M6392 1983 c-2 -41 -1 -42 28 -40 27 2 30 6 30 35 0 39 -17 43 -22 5
-5 -42 -26 -40 -31 4 l-4 38 -1 -42z"/>
<path d="M6470 1966 c0 -28 4 -46 8 -40 4 7 16 13 26 15 50 10 44 73 -8 75
-25 1 -26 -1 -26 -50z m48 8 c-4 -24 -24 -29 -32 -8 -8 20 13 49 27 35 5 -5 7
-17 5 -27z"/>
<path d="M6596 1990 c10 -56 26 -68 38 -27 l7 22 10 -24 c11 -29 25 -19 34 24
6 30 6 30 -8 6 l-14 -24 -10 29 -11 29 -12 -30 -12 -30 -14 30 -14 30 6 -35z"/>
<path d="M6713 1980 c0 -25 2 -35 4 -22 2 12 2 32 0 45 -2 12 -4 2 -4 -23z"/>
<path d="M6751 1976 c2 -29 3 -33 6 -14 2 14 11 32 18 38 16 13 20 8 29 -40 2
-14 3 -7 3 15 -2 36 -5 40 -29 41 -26 1 -28 -1 -27 -40z"/>
<path d="M6831 1975 c1 -27 3 -32 6 -15 11 56 43 62 43 7 0 -24 3 -28 12 -19
8 8 9 20 2 39 -7 21 -16 28 -37 28 -25 1 -27 -2 -26 -40z"/>
<path d="M6924 2006 c-12 -31 0 -61 26 -63 25 -3 25 -3 3 7 -31 13 -29 30 3
30 19 0 25 5 22 18 -4 22 -46 29 -54 8z m41 -6 c3 -5 -3 -10 -15 -10 -12 0
-18 5 -15 10 3 6 10 10 15 10 5 0 12 -4 15 -10z"/>
<path d="M7013 2013 c-7 -2 -13 -20 -13 -39 0 -21 4 -33 10 -29 6 3 10 17 10
31 0 13 5 24 10 24 6 0 10 5 10 10 0 11 -7 12 -27 3z"/>
<path d="M7054 2008 c-4 -6 2 -19 15 -29 20 -17 20 -18 4 -28 -17 -10 -17 -10
0 -11 26 0 33 28 11 45 -17 13 -17 16 -4 25 13 8 13 10 -2 10 -9 0 -20 -5 -24
-12z"/>
<path d="M7160 2005 c-26 -31 13 -82 44 -56 21 17 21 57 0 65 -23 9 -30 8 -44
-9z m45 -26 c0 -28 -29 -38 -39 -13 -7 19 11 47 28 41 6 -2 11 -14 11 -28z"/>
<path d="M7482 2011 c-20 -12 -11 -65 12 -69 10 -2 22 0 27 5 6 6 1 9 -12 9
-12 -1 -24 5 -26 12 -3 7 5 12 21 12 29 0 36 24 10 34 -19 7 -16 7 -32 -3z
m33 -11 c3 -5 -3 -10 -15 -10 -12 0 -18 5 -15 10 3 6 10 10 15 10 5 0 12 -4
15 -10z"/>
<path d="M6338 1983 c6 -2 18 -2 25 0 6 3 1 5 -13 5 -14 0 -19 -2 -12 -5z"/>
<path d="M2882 1839 c-4 -11 -6 -37 -3 -57 5 -36 6 -36 9 -7 2 16 9 33 15 37
9 6 9 8 0 8 -7 0 -13 6 -13 14 0 8 6 17 13 19 9 4 9 6 -1 6 -7 1 -16 -8 -20
-20z"/>
<path d="M4352 1805 c0 -33 2 -52 5 -42 5 18 5 18 25 0 21 -18 21 -18 9 5 -10
18 -10 27 0 38 7 9 8 14 1 14 -6 0 -14 -6 -19 -12 -5 -9 -10 -1 -14 22 -5 27
-6 22 -7 -25z"/>
<path d="M4502 1840 c0 -14 2 -19 5 -12 2 6 2 18 0 25 -3 6 -5 1 -5 -13z"/>
<path d="M4532 1840 c0 -14 2 -19 5 -12 2 6 2 18 0 25 -3 6 -5 1 -5 -13z"/>
<path d="M5103 1805 c-1 -42 1 -51 6 -30 3 17 13 30 21 30 8 0 18 -13 22 -30
6 -29 6 -29 5 5 -2 28 -7 36 -24 38 -13 2 -23 12 -26 25 -2 12 -4 -5 -4 -38z"/>
<path d="M5332 1840 c0 -14 2 -19 5 -12 2 6 2 18 0 25 -3 6 -5 1 -5 -13z"/>
<path d="M5362 1840 c0 -14 2 -19 5 -12 2 6 2 18 0 25 -3 6 -5 1 -5 -13z"/>
<path d="M7320 1841 c0 -13 -8 -21 -22 -23 -18 -2 -23 -10 -23 -33 0 -25 4
-30 28 -33 27 -3 27 -2 27 52 0 31 -2 56 -5 56 -3 0 -5 -9 -5 -19z m-3 -47 c8
-21 -13 -42 -28 -27 -13 13 -5 43 11 43 6 0 13 -7 17 -16z"/>
<path d="M7410 1841 c0 -13 -8 -21 -22 -23 -18 -2 -24 -11 -26 -35 -3 -31 -1
-33 27 -33 31 0 31 0 31 55 0 30 -2 55 -5 55 -3 0 -5 -9 -5 -19z m-5 -56 c0
-11 -8 -21 -17 -23 -14 -3 -18 3 -18 23 0 20 4 26 18 23 9 -2 17 -12 17 -23z"/>
<path d="M2438 1840 c29 -12 28 -26 -7 -61 l-29 -29 41 1 c23 1 32 4 20 6 -27
5 -29 16 -8 33 24 20 15 55 -15 57 -25 3 -25 3 -2 -7z"/>
<path d="M2502 1838 c-14 -14 -16 -57 -3 -76 4 -8 19 -12 32 -10 21 3 24 8 24
48 0 37 -3 45 -20 48 -11 1 -26 -3 -33 -10z m43 -38 c0 -40 -29 -55 -38 -20
-8 31 3 61 22 58 11 -2 16 -14 16 -38z"/>
<path d="M2590 1840 c-10 -6 -11 -10 -2 -10 7 0 12 -14 12 -34 0 -19 -6 -37
-12 -39 -7 -3 3 -5 22 -5 19 0 29 2 23 5 -8 3 -13 23 -13 49 0 45 -4 51 -30
34z"/>
<path d="M2664 1836 c-9 -25 3 -46 27 -46 27 0 20 -22 -12 -32 -22 -6 -21 -7
6 -5 29 2 30 4 30 47 0 39 -3 45 -23 48 -13 2 -25 -3 -28 -12z m44 -19 c2 -12
-3 -17 -17 -17 -12 0 -21 6 -21 13 0 31 32 34 38 4z"/>
<path d="M2796 1810 c-19 -48 -21 -70 -3 -47 11 15 15 15 40 3 15 -8 27 -12
27 -8 0 15 -33 92 -40 92 -4 0 -15 -18 -24 -40z m34 -6 c0 -8 -4 -14 -10 -14
-5 0 -10 9 -10 21 0 11 5 17 10 14 6 -3 10 -13 10 -21z"/>
<path d="M3290 1800 c0 -27 5 -50 10 -50 6 0 10 23 10 50 0 28 -4 50 -10 50
-5 0 -10 -22 -10 -50z"/>
<path d="M4041 1847 c-2 -24 23 -97 32 -94 6 2 15 19 21 38 l10 34 10 -37 c11
-45 31 -49 40 -10 3 15 9 38 12 52 11 39 -10 13 -22 -28 l-11 -37 -7 30 c-13
51 -16 56 -25 51 -5 -4 -13 -21 -17 -39 l-7 -32 -18 40 c-10 22 -18 36 -18 32z"/>
<path d="M4588 1840 c18 -8 21 -13 13 -28 -5 -10 -17 -24 -25 -32 -26 -21 -18
-30 22 -29 23 1 28 3 15 6 -27 5 -29 16 -8 33 24 20 15 55 -15 57 l-25 3 23
-10z"/>
<path d="M4648 1826 c-16 -37 3 -79 35 -74 19 3 22 9 22 48 0 39 -3 45 -22 48
-16 2 -26 -4 -35 -22z m47 -27 c0 -24 -5 -35 -17 -37 -14 -3 -18 4 -18 31 0
18 3 37 7 41 15 14 28 -2 28 -35z"/>
<path d="M4734 1836 c-3 -8 -4 -29 -2 -48 2 -25 8 -34 25 -36 31 -5 51 37 35
73 -13 27 -49 34 -58 11z m46 -37 c0 -33 -3 -40 -17 -37 -32 6 -30 78 2 78 11
0 15 -11 15 -41z"/>
<path d="M4850 1800 c0 -27 5 -50 10 -50 6 0 10 9 10 20 0 11 6 20 14 20 7 0
19 7 26 15 17 20 -3 45 -36 45 -22 0 -24 -4 -24 -50z m45 20 c0 -7 -6 -15 -12
-17 -8 -3 -13 4 -13 17 0 13 5 20 13 18 6 -3 12 -11 12 -18z"/>
<path d="M7191 1813 c-26 -71 -25 -69 -10 -55 7 6 23 12 35 12 12 0 25 -6 28
-12 9 -19 -3 37 -14 67 -13 35 -24 31 -39 -12z m32 -7 c6 -15 -1 -26 -15 -26
-4 0 -8 9 -8 20 0 23 15 27 23 6z"/>
<path d="M3742 1798 c2 -34 7 -43 23 -45 11 -2 14 0 8 3 -7 3 -13 17 -13 30 0
17 6 24 19 24 15 0 21 -8 24 -32 4 -32 4 -32 5 5 2 31 -1 37 -17 37 -11 0 -23
5 -26 10 -14 23 -26 7 -23 -32z"/>
<path d="M4977 1832 c-2 -4 -2 -24 0 -44 4 -27 10 -38 22 -37 10 0 11 2 4 6
-15 5 -18 50 -4 55 5 2 3 9 -4 15 -8 7 -16 9 -18 5z"/>
<path d="M5878 1829 c-2 -6 -2 -26 0 -45 3 -24 9 -34 21 -33 10 0 11 2 4 6
-16 6 -17 50 -2 55 7 2 6 8 -4 16 -11 9 -16 10 -19 1z"/>
<path d="M6629 1831 c-10 -29 3 -81 20 -80 10 0 11 2 4 6 -7 2 -13 16 -13 29
0 17 6 24 19 24 15 0 21 -8 24 -32 4 -32 4 -32 5 5 2 33 -1 37 -22 37 -13 0
-26 6 -28 13 -4 9 -6 9 -9 -2z"/>
<path d="M6718 1829 c-2 -6 -2 -26 0 -45 3 -24 9 -34 21 -33 10 0 11 2 4 6 -7
2 -13 16 -13 29 0 17 6 24 20 24 16 0 20 -7 20 -31 0 -17 4 -28 10 -24 17 10
11 55 -7 61 -10 3 -26 9 -35 14 -10 6 -18 5 -20 -1z"/>
<path d="M2932 1783 c1 -37 1 -37 5 -6 3 19 11 34 21 36 12 3 10 5 -5 6 -20 1
-23 -3 -21 -36z"/>
<path d="M2988 1785 c2 -19 6 -35 8 -35 2 0 4 16 4 35 0 19 -4 35 -8 35 -4 0
-6 -16 -4 -35z"/>
<path d="M3024 1806 c-11 -28 1 -51 26 -53 25 -3 25 -3 3 7 -13 5 -23 16 -23
25 0 9 10 20 23 25 l22 9 -23 0 c-12 1 -25 -5 -28 -13z"/>
<path d="M3126 1805 c4 -10 0 -15 -15 -15 -14 0 -21 -6 -21 -20 0 -15 7 -20
25 -20 22 0 25 4 25 35 0 19 -4 35 -10 35 -5 0 -7 -7 -4 -15z m4 -35 c0 -5 -7
-10 -15 -10 -8 0 -15 5 -15 10 0 6 7 10 15 10 8 0 15 -4 15 -10z"/>
<path d="M3171 1783 c1 -36 2 -37 8 -8 3 17 13 30 21 30 8 0 18 -13 22 -30 6
-29 6 -29 5 5 -2 30 -6 35 -29 38 -26 3 -28 1 -27 -35z"/>
<path d="M3341 1783 c1 -36 2 -37 8 -8 3 17 13 30 21 30 8 0 18 -13 22 -30 6
-29 6 -29 5 5 -2 30 -6 35 -29 38 -26 3 -28 1 -27 -35z"/>
<path d="M3421 1783 c1 -37 2 -37 8 -8 9 43 39 45 44 3 l4 -33 1 38 c2 35 0
37 -28 37 -28 0 -30 -2 -29 -37z"/>
<path d="M3505 1810 c-4 -6 -4 -22 -1 -36 5 -20 12 -25 34 -22 23 2 27 8 27
33 0 25 -4 31 -27 33 -14 2 -29 -2 -33 -8z m53 -22 c-5 -34 -38 -37 -38 -4 0
20 5 26 21 26 15 0 20 -5 17 -22z"/>
<path d="M3591 1813 c-1 -18 18 -63 27 -63 9 0 34 62 27 68 -2 3 -9 -8 -16
-24 l-11 -29 -13 30 c-7 17 -14 25 -14 18z"/>
<path d="M3668 1813 c7 -3 16 -2 19 1 4 3 -2 6 -13 5 -11 0 -14 -3 -6 -6z"/>
<path d="M3706 1806 c4 -10 -2 -15 -18 -18 -12 -2 -24 -11 -26 -20 -3 -14 3
-18 27 -18 28 0 31 3 31 29 0 17 -4 33 -10 36 -5 3 -7 0 -4 -9z m-1 -36 c-3
-5 -10 -10 -16 -10 -5 0 -9 5 -9 10 0 6 7 10 16 10 8 0 12 -4 9 -10z"/>
<path d="M3834 1806 c-11 -29 1 -51 28 -54 22 -3 29 2 34 22 6 27 -1 46 -18
46 -7 0 -6 -5 2 -15 15 -18 6 -45 -15 -45 -21 0 -30 27 -15 45 9 11 9 15 1 15
-6 0 -14 -6 -17 -14z"/>
<path d="M3921 1783 c1 -37 2 -37 8 -8 9 43 39 45 44 3 l4 -33 1 38 c2 35 0
37 -28 37 -28 0 -30 -2 -29 -37z"/>
<path d="M4184 1806 c-12 -30 1 -51 31 -53 18 -1 22 1 10 4 -33 8 -42 23 -14
23 14 0 28 3 32 6 8 8 -3 34 -14 34 -4 0 -6 -7 -3 -15 4 -10 0 -15 -11 -15
-11 0 -15 5 -11 15 3 8 1 15 -5 15 -5 0 -12 -6 -15 -14z"/>
<path d="M4266 1802 c-10 -31 3 -52 33 -51 23 2 24 2 4 6 -13 2 -23 8 -23 13
0 5 10 10 23 12 31 4 28 32 -5 36 -19 2 -28 -2 -32 -16z m44 -2 c0 -5 -7 -10
-15 -10 -8 0 -15 5 -15 10 0 6 7 10 15 10 8 0 15 -4 15 -10z"/>
<path d="M4943 1785 c0 -22 2 -30 4 -17 2 12 2 30 0 40 -3 9 -5 -1 -4 -23z"/>
<path d="M5025 1801 c-9 -30 5 -51 34 -50 23 2 24 2 4 6 -16 3 -23 11 -23 28
0 17 7 25 23 28 19 4 19 4 -5 6 -18 1 -29 -5 -33 -18z"/>
<path d="M5184 1806 c-12 -30 1 -51 31 -53 18 -1 22 1 10 4 -34 9 -41 23 -12
23 20 0 27 5 27 20 0 11 -4 20 -10 20 -5 0 -7 -7 -4 -15 4 -10 0 -15 -11 -15
-11 0 -15 5 -11 15 3 8 1 15 -5 15 -5 0 -12 -6 -15 -14z"/>
<path d="M5260 1805 c0 -8 10 -20 23 -27 l22 -12 -25 -7 c-23 -6 -23 -7 -3 -8
30 -1 40 19 17 36 -16 12 -17 15 -4 23 12 8 11 10 -7 10 -14 0 -23 -6 -23 -15z"/>
<path d="M5433 1785 c0 -22 2 -30 4 -17 2 12 2 30 0 40 -3 9 -5 -1 -4 -23z"/>
<path d="M5471 1783 c1 -37 2 -37 8 -8 9 43 39 45 44 3 l4 -33 1 38 c2 35 0
37 -28 37 -28 0 -30 -2 -29 -37z"/>
<path d="M5561 1783 c1 -36 2 -37 8 -8 8 40 38 46 44 8 4 -28 4 -28 3 2 -1 25
-6 31 -28 33 -26 3 -28 1 -27 -35z"/>
<path d="M5644 1806 c-11 -28 1 -51 27 -54 29 -3 44 18 34 49 -8 23 -53 26
-61 5z m46 -21 c0 -18 -5 -25 -20 -25 -15 0 -20 7 -20 25 0 18 5 25 20 25 15
0 20 -7 20 -25z"/>
<path d="M5720 1816 c0 -17 24 -66 32 -64 13 5 40 68 28 68 -4 0 -13 -12 -18
-27 l-10 -28 -11 28 c-9 23 -21 36 -21 23z"/>
<path d="M5818 1813 c27 -5 30 -23 3 -23 -19 0 -35 -23 -24 -34 4 -3 17 -6 30
-6 20 0 23 5 23 35 0 32 -2 35 -27 34 -24 -2 -25 -2 -5 -6z m22 -43 c0 -5 -7
-10 -15 -10 -8 0 -15 5 -15 10 0 6 7 10 15 10 8 0 15 -4 15 -10z"/>
<path d="M5934 1806 c-11 -28 1 -51 27 -54 29 -3 44 18 34 49 -8 23 -53 26
-61 5z m46 -21 c0 -18 -5 -25 -20 -25 -15 0 -20 7 -20 25 0 18 5 25 20 25 15
0 20 -7 20 -25z"/>
<path d="M6021 1783 c1 -27 3 -31 6 -13 2 14 12 31 21 38 14 11 13 12 -6 12
-19 0 -22 -5 -21 -37z"/>
<path d="M6070 1805 c0 -9 7 -18 15 -21 20 -8 19 -21 -2 -27 -14 -4 -13 -5 4
-6 32 -2 39 19 13 39 -22 17 -23 18 -4 23 16 4 16 5 -3 6 -15 1 -23 -5 -23
-14z"/>
<path d="M6174 1806 c-11 -28 1 -51 26 -53 25 -3 25 -3 3 7 -13 5 -23 16 -23
25 0 9 10 20 23 25 l22 9 -23 0 c-12 1 -25 -5 -28 -13z"/>
<path d="M6244 1806 c-11 -28 1 -51 27 -54 29 -3 44 18 34 49 -8 23 -53 26
-61 5z m46 -21 c0 -18 -5 -25 -20 -25 -20 0 -28 28 -13 43 15 16 33 6 33 -18z"/>
<path d="M6331 1783 c1 -37 2 -37 8 -8 3 17 13 30 21 30 8 0 18 -13 21 -30 l7
-30 1 33 c1 21 6 32 15 32 9 0 16 -13 19 -32 4 -32 4 -32 5 5 l2 37 -50 0 -50
0 1 -37z"/>
<path d="M6461 1768 c1 -29 3 -45 6 -36 2 9 14 18 26 20 17 2 22 10 22 33 0
25 -4 30 -27 33 -28 3 -28 2 -27 -50z m44 16 c0 -10 -8 -20 -17 -22 -18 -3
-26 27 -11 42 12 11 28 0 28 -20z"/>
<path d="M6544 1806 c-12 -30 0 -51 31 -53 18 -1 22 1 10 4 -34 9 -41 23 -11
23 21 0 27 4 24 18 -4 22 -46 29 -54 8z m46 -6 c0 -5 -9 -10 -21 -10 -11 0
-17 5 -14 10 3 6 13 10 21 10 8 0 14 -4 14 -10z"/>
<path d="M6806 1802 c-11 -32 4 -53 33 -50 22 2 26 8 26 33 0 25 -4 31 -27 33
-19 2 -28 -2 -32 -16z m54 -17 c0 -18 -5 -25 -20 -25 -15 0 -20 7 -20 25 0 18
5 25 20 25 15 0 20 -7 20 -25z"/>
<path d="M6893 1804 c-3 -8 -1 -25 5 -37 10 -20 11 -19 11 11 1 26 5 33 18 30
10 -2 21 -16 24 -33 5 -22 7 -24 8 -8 0 12 -2 28 -5 37 -8 21 -53 21 -61 0z"/>
<path d="M7023 1785 c0 -22 2 -30 4 -17 2 12 2 30 0 40 -3 9 -5 -1 -4 -23z"/>
<path d="M7050 1785 c0 -19 5 -35 10 -35 6 0 10 14 10 30 0 20 5 30 15 30 10
0 15 -10 15 -30 0 -16 5 -30 10 -30 6 0 10 9 10 19 0 37 -12 51 -41 51 -26 0
-29 -3 -29 -35z"/>
<path d="M7453 1785 c0 -22 2 -30 4 -17 2 12 2 30 0 40 -3 9 -5 -1 -4 -23z"/>
<path d="M7480 1805 c0 -9 7 -18 15 -21 20 -8 19 -21 -2 -27 -14 -4 -13 -5 4
-6 32 -2 39 19 13 39 -22 17 -23 18 -4 23 16 4 16 5 -3 6 -15 1 -23 -5 -23
-14z"/>
<path d="M4426 1754 c-4 -9 -4 -19 -1 -22 2 -3 7 3 11 12 4 9 4 19 1 22 -2 3
-7 -3 -11 -12z"/>
<path d="M2617 1628 c-8 -19 -18 -46 -21 -59 -6 -22 -6 -22 7 -6 18 22 53 22
61 1 4 -9 9 -15 11 -12 5 5 -27 93 -37 104 -4 3 -13 -9 -21 -28z m33 -30 c0
-5 -7 -8 -15 -8 -15 0 -20 21 -8 33 7 7 23 -11 23 -25z"/>
<path d="M2691 1609 c-1 -54 0 -56 25 -55 51 2 59 71 9 71 -10 0 -22 9 -26 20
-5 13 -8 2 -8 -36z m49 -19 c0 -26 -15 -33 -30 -15 -10 12 -10 18 0 30 15 18
30 11 30 -15z"/>
<path d="M2861 1610 c-1 -52 0 -56 24 -58 19 -1 26 4 31 23 9 36 -2 58 -26 52
-14 -3 -20 1 -23 17 -2 11 -5 -4 -6 -34z m44 -20 c0 -27 -22 -39 -31 -16 -8
22 3 49 19 43 6 -2 12 -14 12 -27z"/>
<path d="M3104 1646 c-3 -8 -4 -31 -2 -52 3 -35 6 -39 33 -41 20 -1 23 0 8 4
-14 2 -23 12 -23 23 0 11 9 20 23 23 l22 4 -22 2 c-28 1 -31 31 -3 31 11 0 20
5 20 10 0 15 -50 12 -56 -4z"/>
<path d="M3230 1605 c0 -59 17 -76 22 -23 4 46 28 49 28 4 0 -20 5 -36 10 -36
6 0 10 13 10 29 0 31 -22 57 -40 46 -6 -3 -10 3 -10 14 0 12 -4 21 -10 21 -5
0 -10 -25 -10 -55z"/>
<path d="M3740 1646 c0 -8 -10 -16 -21 -18 -53 -8 -48 -72 5 -74 25 -1 26 1
26 52 0 30 -2 54 -5 54 -3 0 -5 -6 -5 -14z m-12 -73 c-16 -15 -18 -15 -24 0
-3 9 -3 25 0 34 6 15 8 15 24 0 15 -16 15 -18 0 -34z"/>
<path d="M3915 1650 c3 -5 8 -10 11 -10 2 0 4 5 4 10 0 6 -5 10 -11 10 -5 0
-7 -4 -4 -10z"/>
<path d="M4212 1605 c1 -46 2 -52 7 -26 8 48 27 49 39 4 l11 -38 -2 40 c-2 33
-6 40 -22 40 -11 0 -23 9 -27 20 -3 11 -6 -7 -6 -40z"/>
<path d="M4690 1605 c0 -30 5 -55 10 -55 6 0 10 7 10 17 0 14 2 14 20 -2 21
-19 28 -7 8 13 -10 10 -10 17 0 33 12 19 11 19 -8 9 -18 -9 -20 -8 -20 15 0
14 -4 25 -10 25 -5 0 -10 -25 -10 -55z"/>
<path d="M4893 1645 c-11 -18 -4 -95 8 -95 8 0 15 58 10 84 -1 5 4 13 11 17
10 7 9 9 -4 9 -9 0 -21 -7 -25 -15z"/>
<path d="M4992 1644 c-24 -16 -28 -44 -12 -75 12 -21 50 -25 68 -7 20 20 15
76 -7 88 -25 13 -22 13 -49 -6z m56 -35 c3 -29 -20 -54 -43 -45 -15 5 -21 57
-8 70 16 16 48 1 51 -25z"/>
<path d="M5304 1610 c1 -49 4 -55 23 -58 17 -3 24 3 29 22 9 36 -2 59 -26 53
-13 -3 -20 1 -23 17 -3 11 -4 -4 -3 -34z m41 -20 c0 -27 -22 -39 -31 -16 -8
22 3 49 19 43 6 -2 12 -14 12 -27z"/>
<path d="M5565 1650 c-3 -5 1 -10 9 -10 26 0 26 -15 0 -53 l-25 -37 38 1 c23
1 29 3 16 6 -27 5 -29 16 -8 33 20 16 19 56 -1 64 -21 8 -22 8 -29 -4z"/>
<path d="M5650 1645 c-10 -12 -10 -19 -2 -27 8 -8 9 -15 1 -25 -17 -19 -3 -43
25 -43 27 0 42 26 26 45 -6 7 -7 20 -4 30 4 10 1 21 -7 26 -19 12 -25 11 -39
-6z m35 -25 c-5 -8 -11 -8 -17 -2 -6 6 -7 16 -3 22 5 8 11 8 17 2 6 -6 7 -16
3 -22z m3 -43 c2 -10 -3 -17 -12 -17 -18 0 -29 16 -21 31 9 14 29 6 33 -14z"/>
<path d="M5783 1605 c0 -33 2 -45 4 -27 2 17 8 32 14 32 5 0 12 0 17 0 4 1 10
-14 14 -32 6 -31 6 -31 5 7 -2 33 -6 40 -22 40 -11 0 -23 9 -27 20 -3 11 -6
-7 -5 -40z"/>
<path d="M6391 1610 c-1 -52 1 -56 23 -58 35 -3 52 22 37 54 -8 19 -16 24 -30
19 -15 -4 -21 0 -24 17 -2 13 -5 -2 -6 -32z m47 -26 c-4 -23 -26 -30 -34 -10
-8 20 15 51 29 37 5 -5 7 -17 5 -27z"/>
<path d="M6671 1650 c-9 -5 -6 -9 10 -13 21 -6 21 -7 6 -29 -41 -57 -41 -58 0
-57 23 1 29 3 16 6 -27 5 -29 16 -8 33 31 26 9 81 -24 60z"/>
<path d="M6870 1640 c0 -12 -5 -17 -13 -14 -19 7 -39 -20 -35 -48 2 -18 10
-24 36 -26 l32 -3 0 55 c0 31 -4 56 -10 56 -5 0 -10 -9 -10 -20z m-2 -56 c-4
-24 -24 -29 -32 -8 -8 20 13 49 27 35 5 -5 7 -17 5 -27z"/>
<path d="M6999 1649 c-11 -7 -9 -9 9 -9 27 0 28 -19 2 -53 -27 -34 -26 -37 13
-36 27 1 29 2 9 7 -21 6 -22 9 -8 27 30 39 11 87 -25 64z"/>
<path d="M7074 1634 c-24 -35 -9 -79 26 -79 22 0 25 5 28 42 2 33 -1 44 -17
53 -17 9 -23 6 -37 -16z m44 -31 c-2 -26 -8 -38 -18 -38 -10 0 -16 12 -18 38
-3 32 0 37 18 37 18 0 21 -5 18 -37z"/>
<path d="M7246 1644 c-9 -8 -16 -19 -16 -23 0 -13 24 -31 43 -31 23 0 13 -18
-17 -30 -20 -9 -20 -9 0 -9 29 -1 44 18 44 56 0 41 -30 61 -54 37z m39 -24 c0
-8 -8 -16 -17 -18 -13 -2 -18 3 -18 18 0 15 5 20 18 18 9 -2 17 -10 17 -18z"/>
<path d="M5158 1639 c-2 -6 -2 -28 0 -50 3 -28 9 -39 21 -38 10 0 11 2 4 6
-15 5 -18 60 -4 65 5 2 3 8 -4 15 -9 8 -15 9 -17 2z"/>
<path d="M5922 1598 l1 -53 6 45 6 44 13 -28 c7 -16 15 -26 18 -23 8 7 -25 67
-36 67 -6 0 -9 -24 -8 -52z"/>
<path d="M5978 1608 c-5 -47 -2 -61 13 -53 12 8 12 95 0 95 -5 0 -11 -19 -13
-42z"/>
<path d="M7164 1638 c-4 -7 -3 -8 4 -4 8 5 12 -5 12 -33 0 -22 -5 -42 -12 -44
-7 -3 3 -5 22 -5 19 0 29 2 23 5 -8 3 -13 23 -13 49 0 32 -4 44 -14 44 -8 0
-18 -5 -22 -12z"/>
<path d="M3178 1635 c-3 -3 -2 -22 1 -42 5 -28 12 -38 26 -40 11 -2 14 0 8 3
-7 3 -13 19 -13 35 0 16 5 29 13 29 8 0 7 4 -3 10 -17 11 -24 12 -32 5z"/>
<path d="M4145 1631 c-3 -5 -1 -13 5 -16 6 -4 9 -18 8 -33 -2 -20 2 -27 17
-29 11 -1 14 0 8 3 -7 3 -13 19 -13 35 0 16 5 29 13 29 8 0 7 4 -3 10 -19 12
-27 12 -35 1z"/>
<path d="M5728 1635 c-2 -2 -2 -22 0 -44 3 -29 9 -41 20 -41 12 0 13 3 4 12
-16 16 -16 55 0 60 8 3 6 6 -4 10 -9 4 -18 5 -20 3z"/>
<path d="M2780 1621 c0 -6 6 -8 14 -5 25 10 26 -13 1 -24 -31 -14 -23 -42 11
-40 22 2 25 7 22 38 -2 28 -8 36 -25 38 -13 2 -23 -1 -23 -7z m40 -40 c0 -12
-20 -25 -27 -18 -7 7 6 27 18 27 5 0 9 -4 9 -9z"/>
<path d="M2946 1621 c-4 -5 3 -7 14 -4 26 7 26 -14 -1 -22 -29 -10 -20 -39 14
-43 24 -3 27 0 27 25 0 41 -37 71 -54 44z m34 -46 c0 -8 -4 -15 -9 -15 -13 0
-22 16 -14 24 11 11 23 6 23 -9z"/>
<path d="M3320 1591 c0 -23 5 -41 10 -41 6 0 10 15 10 34 0 19 -4 38 -10 41
-6 4 -10 -10 -10 -34z"/>
<path d="M3360 1611 c-15 -29 4 -63 33 -59 18 2 22 10 22 38 0 28 -4 36 -22
38 -14 2 -26 -4 -33 -17z m45 -21 c0 -27 -22 -39 -31 -16 -8 22 3 49 19 43 6
-2 12 -14 12 -27z"/>
<path d="M3451 1575 c1 -27 3 -43 6 -34 2 11 11 15 23 12 14 -4 21 2 26 21 9
38 -1 56 -31 54 -23 -2 -25 -6 -24 -53z m44 35 c8 -13 -4 -50 -16 -50 -13 0
-22 27 -15 45 6 17 22 20 31 5z"/>
<path d="M3533 1590 c0 -25 2 -35 4 -22 2 12 2 32 0 45 -2 12 -4 2 -4 -23z"/>
<path d="M3570 1621 c0 -6 6 -8 14 -5 26 10 26 -13 0 -25 -32 -14 -26 -36 10
-37 25 -1 27 2 24 35 -2 29 -8 37 -25 39 -13 2 -23 -1 -23 -7z m40 -40 c0 -12
-20 -25 -27 -18 -7 7 6 27 18 27 5 0 9 -4 9 -9z"/>
<path d="M3770 1603 c0 -38 11 -52 38 -50 19 1 22 7 21 42 l-2 40 -6 -34 c-8
-45 -31 -54 -31 -12 0 16 -4 33 -10 36 -6 4 -10 -6 -10 -22z"/>
<path d="M3861 1593 c1 -28 3 -31 6 -13 3 14 10 31 15 38 8 9 6 12 -6 12 -12
0 -16 -9 -15 -37z"/>
<path d="M3917 1623 c-11 -10 -8 -73 3 -73 6 0 10 18 10 40 0 41 -2 45 -13 33z"/>
<path d="M3951 1586 l2 -41 6 35 c4 22 12 35 21 35 9 0 18 -13 22 -35 l6 -35
-1 40 c-2 36 -5 40 -29 41 -26 1 -28 -1 -27 -40z"/>
<path d="M4044 1618 c-4 -6 -8 -29 -9 -50 -2 -29 2 -39 17 -44 26 -8 52 14 37
32 -6 8 -19 14 -28 15 -11 0 -10 3 5 9 12 4 24 18 27 29 4 17 1 21 -18 21 -13
0 -27 -5 -31 -12z m28 -13 c0 -5 -5 -11 -11 -13 -6 -2 -11 4 -11 13 0 9 5 15
11 13 6 -2 11 -8 11 -13z m3 -54 c7 -12 -12 -24 -25 -16 -11 7 -4 25 10 25 5
0 11 -4 15 -9z"/>
<path d="M4300 1616 c-20 -25 -4 -66 25 -66 14 0 25 4 25 8 0 5 -10 8 -21 8
-12 -1 -24 5 -26 12 -3 7 5 12 22 12 20 0 26 4 23 17 -4 23 -31 28 -48 9z m35
-6 c3 -5 -3 -10 -15 -10 -12 0 -18 5 -15 10 3 6 10 10 15 10 5 0 12 -4 15 -10z"/>
<path d="M4413 1595 c14 -40 30 -46 38 -13 6 23 6 22 14 -4 10 -37 21 -35 34
3 15 44 12 61 -4 24 l-13 -30 -12 30 -12 30 -13 -30 -12 -30 -8 28 c-4 15 -11
27 -16 27 -4 0 -3 -16 4 -35z"/>
<path d="M4534 1616 c-12 -31 0 -61 26 -63 25 -3 25 -3 3 7 -31 13 -29 30 3
30 19 0 25 5 22 18 -4 22 -46 29 -54 8z m41 -6 c3 -5 -3 -10 -15 -10 -12 0
-18 5 -15 10 3 6 10 10 15 10 5 0 12 -4 15 -10z"/>
<path d="M4622 1621 c-8 -4 -12 -21 -10 -37 2 -23 9 -30 31 -32 15 -2 27 1 27
6 0 5 -10 8 -21 8 -12 -1 -24 5 -26 12 -3 7 5 12 22 12 20 0 26 4 23 17 -4 20
-27 27 -46 14z m33 -11 c3 -5 -3 -10 -15 -10 -12 0 -18 5 -15 10 3 6 10 10 15
10 5 0 12 -4 15 -10z"/>
<path d="M4810 1615 c-26 -31 13 -82 44 -56 19 16 21 42 4 59 -16 16 -33 15
-48 -3z m39 -9 c14 -17 4 -46 -15 -46 -18 0 -28 24 -20 45 7 19 20 19 35 1z"/>
<path d="M5090 1615 c-24 -29 14 -85 41 -58 9 9 7 11 -10 6 -18 -5 -21 -1 -21
27 0 27 3 32 20 27 11 -3 18 -1 14 4 -8 14 -30 11 -44 -6z"/>
<path d="M5210 1610 c-14 -26 3 -60 30 -60 27 0 44 34 30 60 -6 11 -19 20 -30
20 -11 0 -24 -9 -30 -20z m45 -20 c0 -13 -6 -25 -12 -27 -16 -6 -27 21 -19 43
9 23 31 11 31 -16z"/>
<path d="M5392 1621 c-8 -4 -12 -21 -10 -37 2 -23 9 -30 31 -32 15 -2 27 1 27
6 0 5 -8 8 -17 8 -27 -1 -31 19 -5 22 15 2 22 9 20 20 -4 19 -27 26 -46 13z
m33 -11 c3 -5 -3 -10 -15 -10 -12 0 -18 5 -15 10 3 6 10 10 15 10 5 0 12 -4
15 -10z"/>
<path d="M5460 1589 c0 -21 5 -39 10 -39 6 0 10 13 10 28 0 15 4 32 10 38 6 6
3 10 -10 11 -17 2 -20 -4 -20 -38z"/>
<path d="M6032 1621 c-8 -5 -12 -21 -10 -37 4 -40 43 -46 59 -10 18 39 -14 70
-49 47z m33 -31 c0 -27 -22 -39 -31 -16 -8 22 3 49 19 43 6 -2 12 -14 12 -27z"/>
<path d="M6104 1614 c3 -9 9 -27 12 -40 8 -31 22 -31 34 2 15 39 11 64 -4 29
l-14 -30 -11 28 c-6 15 -13 27 -17 27 -3 0 -3 -7 0 -16z"/>
<path d="M6192 1621 c-8 -5 -12 -21 -10 -37 2 -24 8 -29 33 -31 27 -2 28 -1 6
5 -34 10 -39 32 -7 32 29 0 36 24 10 34 -19 7 -16 7 -32 -3z m33 -11 c3 -5 -3
-10 -15 -10 -12 0 -18 5 -15 10 3 6 10 10 15 10 5 0 12 -4 15 -10z"/>
<path d="M6260 1587 c0 -22 4 -36 10 -32 5 3 7 12 3 20 -6 18 15 47 28 39 5
-3 10 -20 10 -37 l2 -32 6 35 c4 22 12 35 21 35 9 0 17 -13 21 -35 l6 -35 2
32 c1 39 -11 48 -66 48 l-43 0 0 -38z"/>
<path d="M6482 1618 c-27 -27 -2 -74 35 -65 14 4 13 5 -4 6 -32 1 -30 31 2 31
14 0 25 4 25 8 0 12 -22 32 -35 32 -6 0 -16 -5 -23 -12z m33 -8 c3 -5 -1 -10
-10 -10 -9 0 -13 5 -10 10 3 6 8 10 10 10 2 0 7 -4 10 -10z"/>
<path d="M6561 1585 c2 -33 3 -35 6 -10 3 16 12 35 21 41 15 12 15 13 -5 11
-20 -1 -23 -6 -22 -42z"/>
<path d="M6753 1623 c-8 -3 -12 -20 -12 -41 l2 -37 6 35 c4 22 12 35 21 35 9
0 17 -13 21 -35 6 -35 6 -35 8 -4 0 16 -4 35 -11 42 -13 13 -16 13 -35 5z"/>
<path d="M5868 1593 c7 -3 16 -2 19 1 4 3 -2 6 -13 5 -11 0 -14 -3 -6 -6z"/>
<path d="M3026 1554 c-4 -9 -4 -19 -1 -22 2 -3 7 3 11 12 4 9 4 19 1 22 -2 3
-7 -3 -11 -12z"/>
<path d="M6910 1551 c-6 -12 -7 -21 -1 -21 10 0 24 30 17 37 -2 3 -9 -5 -16
-16z"/>
<path d="M7320 1560 c0 -5 5 -10 11 -10 5 0 7 5 4 10 -3 6 -8 10 -11 10 -2 0
-4 -4 -4 -10z"/>
<path d="M7446 1201 c-3 -4 6 -6 19 -3 14 2 25 6 25 8 0 8 -39 4 -44 -5z"/>
<path d="M7521 1183 c7 -12 15 -20 18 -17 3 2 -3 12 -13 22 -17 16 -18 16 -5
-5z"/>
<path d="M7409 1173 c-13 -16 -12 -17 4 -4 16 13 21 21 13 21 -2 0 -10 -8 -17
-17z"/>
<path d="M7392 1130 c0 -14 2 -19 5 -12 2 6 2 18 0 25 -3 6 -5 1 -5 -13z"/>
<path d="M4875 1125 c-195 -35 -351 -178 -409 -374 -18 -62 -21 -193 -5 -261
43 -185 209 -344 404 -385 88 -18 122 -18 210 0 192 41 343 182 399 374 20 69
21 189 1 264 -53 203 -225 357 -432 387 -81 12 -80 12 -168 -5z m205 -128 c65
-33 110 -110 110 -189 0 -39 -7 -72 -20 -98 -18 -35 -182 -231 -198 -238 -12
-4 -178 190 -201 235 -30 59 -28 139 4 202 55 110 187 148 305 88z m-515 -558
c-6 -29 -15 -37 -15 -12 0 17 8 33 16 33 2 0 1 -10 -1 -21z m-38 4 c-4 -3 -3
-11 3 -17 6 -8 3 -12 -11 -12 -10 0 -19 1 -19 2 0 13 14 34 23 34 6 0 7 -3 4
-7z m84 -2 c6 10 8 8 7 -7 -2 -27 -28 -27 -27 0 0 13 3 16 6 7 5 -11 7 -11 14
0z m26 -23 c-3 -7 -5 -2 -5 12 0 14 2 19 5 13 2 -7 2 -19 0 -25z m47 0 c7 -5
4 -8 -6 -8 -12 0 -18 7 -17 23 0 15 2 17 6 7 3 -8 11 -18 17 -22z m31 22 c-3
-5 -1 -10 4 -10 6 0 11 -4 11 -8 0 -5 -7 -9 -15 -9 -8 0 -15 9 -15 19 0 10 5
18 11 18 5 0 7 -4 4 -10z m65 -13 c0 -16 -3 -17 -15 -7 -12 10 -15 10 -15 0 0
-8 -3 -11 -6 -7 -11 10 3 34 20 34 9 0 16 -9 16 -20z m37 -9 c-3 -7 -5 -2 -5
12 0 14 2 19 5 13 2 -7 2 -19 0 -25z m50 12 c1 -9 -4 -17 -11 -17 -6 0 -13 8
-13 17 -1 9 4 17 11 17 6 0 13 -8 13 -17z m36 -5 c-7 -21 -13 -19 -13 6 0 11
4 18 10 14 5 -3 7 -12 3 -20z m23 -12 c-11 -11 -17 4 -9 23 7 18 8 18 11 1 2
-10 1 -21 -2 -24z m36 7 c6 0 7 8 3 18 -5 13 -3 14 6 5 13 -13 4 -33 -17 -33
-8 0 -14 9 -13 23 1 16 2 18 6 5 2 -10 9 -18 15 -18z m41 10 c3 -11 1 -18 -4
-14 -5 3 -9 12 -9 20 0 20 7 17 13 -6z m60 1 c3 -15 0 -19 -14 -18 -20 1 -27
17 -8 17 5 0 7 5 4 10 -3 6 -2 10 3 10 5 0 12 -9 15 -19z m30 -1 c-3 -11 -7
-20 -9 -20 -2 0 -4 9 -4 20 0 11 4 20 9 20 5 0 7 -9 4 -20z m24 -12 c-3 -7 -5
-2 -5 12 0 14 2 19 5 13 2 -7 2 -19 0 -25z m49 6 c9 3 12 1 9 -4 -12 -19 -35
-10 -34 13 1 18 2 18 6 4 3 -11 11 -16 19 -13z m51 6 c1 -9 -5 -17 -13 -17 -8
0 -14 8 -14 17 0 22 26 22 27 0z m75 2 c4 -12 -1 -18 -13 -19 -22 -2 -24 3 -6
22 15 18 14 18 19 -3z m42 7 c-3 -6 0 -15 7 -20 11 -7 10 -9 -3 -9 -11 0 -18
8 -18 20 0 11 5 20 11 20 5 0 7 -5 3 -11z m50 -21 c7 -5 4 -8 -6 -8 -12 0 -18
7 -17 23 0 15 2 17 6 7 3 -8 11 -18 17 -22z m43 12 c1 -9 -5 -17 -13 -17 -8 0
-14 8 -14 17 0 22 26 22 27 0z"/>
<path d="M4882 969 c-87 -44 -124 -151 -84 -241 36 -82 130 -130 211 -108 126
34 182 155 127 272 -41 85 -164 123 -254 77z m68 -19 c0 -5 17 -10 38 -10 32
0 39 -4 51 -32 19 -46 40 -68 58 -61 13 5 13 2 5 -14 -6 -11 -18 -25 -26 -33
-9 -7 -16 -28 -16 -46 0 -19 -4 -34 -10 -34 -5 0 -10 -8 -10 -17 0 -22 -29
-53 -51 -53 -19 0 -45 60 -40 96 1 11 -3 32 -8 47 -9 23 -16 27 -48 27 -61 0
-77 44 -38 104 9 14 24 27 33 29 32 9 62 7 62 -3z m150 -223 c0 -15 -29 -57
-30 -42 0 6 3 20 6 33 7 24 24 31 24 9z"/>
<path d="M7381 1084 c0 -11 3 -14 6 -6 3 7 2 16 -1 19 -3 4 -6 -2 -5 -13z"/>
<path d="M6779 1053 l-24 -28 28 24 c25 23 32 31 24 31 -2 0 -14 -12 -28 -27z"/>
<path d="M7391 1044 c0 -11 3 -14 6 -6 3 7 2 16 -1 19 -3 4 -6 -2 -5 -13z"/>
<path d="M7400 1015 c0 -5 5 -17 10 -25 5 -8 10 -10 10 -5 0 6 -5 17 -10 25
-5 8 -10 11 -10 5z"/>
<path d="M6729 993 c-13 -16 -12 -17 4 -4 9 7 17 15 17 17 0 8 -8 3 -21 -13z"/>
<path d="M7532 980 c0 -14 2 -19 5 -12 2 6 2 18 0 25 -3 6 -5 1 -5 -13z"/>
<path d="M7521 924 c0 -11 3 -14 6 -6 3 7 2 16 -1 19 -3 4 -6 -2 -5 -13z"/>
<path d="M6852 904 c9 -3 19 -13 22 -22 3 -12 4 -12 3 3 -1 12 -10 21 -22 22
-15 1 -15 0 -3 -3z"/>
<path d="M6690 892 c1 -10 31 -44 55 -62 19 -14 19 -14 5 4 -23 30 -60 66 -60
58z"/>
<path d="M6980 876 c0 -2 15 -6 34 -8 19 -2 32 0 30 4 -5 8 -64 12 -64 4z"/>
<path d="M7337 850 c3 -11 7 -20 9 -20 2 0 4 9 4 20 0 11 -4 20 -9 20 -5 0 -7
-9 -4 -20z"/>
<path d="M6861 834 c0 -11 3 -14 6 -6 3 7 2 16 -1 19 -3 4 -6 -2 -5 -13z"/>
<path d="M6956 835 c4 -8 8 -15 10 -15 2 0 4 7 4 15 0 8 -4 15 -10 15 -5 0 -7
-7 -4 -15z"/>
<path d="M3339 813 c-29 -35 -41 -53 -36 -53 2 0 17 16 31 35 28 36 31 49 5
18z"/>
<path d="M6910 809 c-7 -11 -10 -23 -7 -25 2 -2 9 7 15 21 14 30 7 33 -8 4z"/>
<path d="M6653 805 c0 -8 3 -13 5 -10 3 3 12 -1 21 -7 10 -8 9 -4 -3 10 -23
26 -23 26 -23 7z"/>
<path d="M6311 783 c-10 -26 -10 -27 4 -9 8 11 15 23 15 28 0 15 -7 8 -19 -19z"/>
<path d="M6852 785 c0 -16 2 -22 5 -12 2 9 2 23 0 30 -3 6 -5 -1 -5 -18z"/>
<path d="M7351 800 c0 -8 8 -26 19 -40 11 -14 20 -20 20 -13 0 6 -5 15 -11 18
-6 4 -14 17 -19 29 -5 12 -9 15 -9 6z"/>
<path d="M7220 797 c0 -14 30 -67 39 -67 4 0 13 12 19 28 l12 27 -17 -23 -17
-24 -17 34 c-10 18 -18 29 -19 25z"/>
<path d="M7475 774 c-9 -15 -12 -23 -6 -20 11 7 35 46 28 46 -3 0 -12 -12 -22
-26z"/>
<path d="M7135 769 c-6 -17 -9 -19 -16 -8 -6 10 -8 7 -6 -9 0 -12 4 -22 8 -22
8 0 31 51 25 57 -2 2 -7 -5 -11 -18z"/>
<path d="M2667 773 c-3 -5 12 -8 34 -8 22 -1 33 2 26 7 -15 10 -54 10 -60 1z"/>
<path d="M2836 767 c3 -10 9 -15 12 -12 3 3 0 11 -7 18 -10 9 -11 8 -5 -6z"/>
<path d="M3150 755 l-23 -25 26 13 c15 6 27 18 27 25 0 17 -3 16 -30 -13z"/>
<path d="M6593 710 c0 -41 2 -58 4 -37 2 20 2 54 0 75 -2 20 -4 3 -4 -38z"/>
<path d="M6771 764 c0 -11 3 -14 6 -6 3 7 2 16 -1 19 -3 4 -6 -2 -5 -13z"/>
<path d="M3000 750 c-6 -11 -8 -20 -6 -20 3 0 10 9 16 20 6 11 8 20 6 20 -3 0
-10 -9 -16 -20z"/>
<path d="M3069 753 c-12 -14 -12 -16 0 -8 12 7 13 1 7 -33 -4 -26 -2 -42 4
-42 5 0 10 23 10 50 0 28 -2 50 -4 50 -2 0 -10 -8 -17 -17z"/>
<path d="M3706 751 c-20 -22 -20 -35 -1 -51 9 -7 14 -19 11 -27 -10 -24 10
-13 27 16 22 38 22 58 -2 70 -14 8 -22 6 -35 -8z m44 -21 c0 -24 -26 -38 -42
-22 -16 16 -2 42 22 42 13 0 20 -7 20 -20z"/>
<path d="M6880 750 c-6 -11 -8 -20 -6 -20 3 0 10 9 16 20 6 11 8 20 6 20 -3 0
-10 -9 -16 -20z"/>
<path d="M3415 750 c3 -5 8 -10 11 -10 2 0 4 5 4 10 0 6 -5 10 -11 10 -5 0 -7
-4 -4 -10z"/>
<path d="M3490 745 c-6 -8 -10 -20 -7 -27 4 -8 6 -7 6 4 1 9 9 22 19 27 9 6
12 11 6 11 -6 0 -17 -7 -24 -15z"/>
<path d="M3550 743 c12 -18 12 -24 -1 -40 -13 -16 -13 -17 4 -4 21 17 22 35 0
52 -15 13 -15 12 -3 -8z"/>
<path d="M3617 753 c-3 -5 1 -14 9 -21 12 -11 14 -9 14 8 0 20 -14 27 -23 13z"/>
<path d="M2651 734 c0 -11 3 -14 6 -6 3 7 2 16 -1 19 -3 4 -6 -2 -5 -13z"/>
<path d="M2742 730 c0 -14 2 -19 5 -12 2 6 2 18 0 25 -3 6 -5 1 -5 -13z"/>
<path d="M3284 738 c-4 -7 -14 -24 -22 -38 -14 -24 -13 -24 3 -5 20 24 37 55
31 55 -3 0 -8 -6 -12 -12z"/>
<path d="M6472 725 c-6 -14 -8 -25 -3 -25 8 0 23 41 17 47 -1 2 -8 -8 -14 -22z"/>
<path d="M7041 734 c0 -11 3 -14 6 -6 3 7 2 16 -1 19 -3 4 -6 -2 -5 -13z"/>
<path d="M6991 734 c-1 -5 5 -19 13 -30 12 -16 17 -17 28 -6 11 11 10 12 -3 7
-10 -4 -19 2 -27 17 -6 13 -11 18 -11 12z"/>
<path d="M7408 733 c6 -2 18 -2 25 0 6 3 1 5 -13 5 -14 0 -19 -2 -12 -5z"/>
<path d="M2813 705 c-13 -15 -17 -25 -9 -25 7 0 18 11 24 25 14 31 13 31 -15
0z"/>
<path d="M3158 705 c-3 -14 -1 -25 3 -25 5 0 9 11 9 25 0 14 -2 25 -4 25 -2 0
-6 -11 -8 -25z"/>
<path d="M6392 710 c0 -14 2 -19 5 -12 2 6 2 18 0 25 -3 6 -5 1 -5 -13z"/>
<path d="M6782 678 c-1 -39 -6 -58 -14 -58 -10 0 -10 -2 -1 -8 8 -5 13 -44 16
-112 l3 -105 2 107 c2 102 3 107 25 111 l22 4 -22 2 c-20 1 -22 8 -26 59 l-3
57 -2 -57z"/>
<path d="M2975 709 c-4 -6 -5 -12 -2 -15 2 -3 7 2 10 11 7 17 1 20 -8 4z"/>
<path d="M7559 693 c-13 -16 -12 -17 4 -4 16 13 21 21 13 21 -2 0 -10 -8 -17
-17z"/>
<path d="M2653 690 c2 -8 16 -16 33 -17 25 -1 26 0 4 4 -14 3 -29 10 -33 17
-6 7 -7 6 -4 -4z"/>
<path d="M3370 690 c-8 -5 -10 -10 -5 -10 6 0 17 5 25 10 8 5 11 10 5 10 -5 0
-17 -5 -25 -10z"/>
<path d="M6325 664 c-9 -15 -12 -23 -6 -20 11 7 35 46 28 46 -3 0 -12 -12 -22
-26z"/>
<path d="M6419 648 c-21 -28 -23 -29 -30 -12 -7 17 -8 17 -8 -3 -1 -34 21 -28
47 12 28 44 21 46 -9 3z"/>
<path d="M6465 638 c2 -9 -2 -19 -9 -22 -6 -2 12 -4 39 -4 29 1 38 3 22 5 -28
4 -29 5 -10 26 18 22 18 22 -3 5 -24 -21 -31 -22 -37 -5 -2 6 -3 4 -2 -5z"/>
<path d="M6727 649 c7 -7 15 -10 18 -7 3 3 -2 9 -12 12 -14 6 -15 5 -6 -5z"/>
<path d="M7515 650 c2 -4 -2 -16 -10 -26 -8 -10 -14 -23 -14 -29 0 -5 5 -1 11
10 11 19 11 19 20 0 7 -17 8 -16 4 4 -3 14 -1 30 4 36 7 8 5 12 -5 12 -8 0
-12 -3 -10 -7z"/>
<path d="M3685 640 c-3 -5 -2 -10 4 -10 5 0 13 5 16 10 3 6 2 10 -4 10 -5 0
-13 -4 -16 -10z"/>
<path d="M2777 613 c248 -2 658 -2 910 0 252 1 49 2 -452 2 -500 0 -707 -1
-458 -2z"/>
<path d="M5942 613 c59 -2 158 -2 220 0 62 1 14 3 -107 3 -121 0 -172 -2 -113
-3z"/>
<path d="M6298 613 c7 -3 16 -2 19 1 4 3 -2 6 -13 5 -11 0 -14 -3 -6 -6z"/>
<path d="M6586 605 c4 -8 8 -15 10 -15 2 0 4 7 4 15 0 8 -4 15 -10 15 -5 0 -7
-7 -4 -15z"/>
<path d="M6655 611 c3 -2 -1 -11 -7 -20 -8 -10 -3 -8 12 4 14 11 27 21 29 22
2 1 -6 1 -17 0 -12 0 -19 -3 -17 -6z"/>
<path d="M6608 573 c7 -3 16 -2 19 1 4 3 -2 6 -13 5 -11 0 -14 -3 -6 -6z"/>
<path d="M7466 545 c-3 -9 -6 -24 -5 -33 0 -9 5 -4 10 12 9 32 6 48 -5 21z"/>
<path d="M7470 485 c-1 -35 58 -72 74 -46 3 4 -5 6 -18 4 -19 -4 -28 2 -40 23
-8 16 -15 24 -16 19z"/>
<path d="M6791 354 c0 -11 3 -14 6 -6 3 7 2 16 -1 19 -3 4 -6 -2 -5 -13z"/>
<path d="M6800 311 c0 -10 39 -46 43 -40 2 2 -7 14 -20 26 -13 12 -23 19 -23
14z"/>
</g>
</svg>
